<?xml version="1.0" encoding="UTF-8"?>
<svg version="1.1" xmlns="http://www.w3.org/2000/svg" width="632" height="484">
<path d="M0 0 C208.56 0 417.12 0 632 0 C632 159.72 632 319.44 632 484 C423.44 484 214.88 484 0 484 C0 324.28 0 164.56 0 0 Z " fill="#FAFAFC" transform="translate(0,0)"/>
<path d="M0 0 C1.21647217 0.19166748 1.21647217 0.19166748 2.45751953 0.38720703 C37.78061536 6.00586108 71.12076767 25.94608308 96.50927734 50.55615234 C97.9496267 51.95121066 99.40619733 53.32946078 100.86328125 54.70703125 C124.99262124 78.01727059 141.12982072 108.4654263 151.0625 140.25 C151.36164307 141.18972656 151.66078613 142.12945312 151.96899414 143.09765625 C153.89032128 149.52545247 155.49429954 156.04378073 153.046875 162.5234375 C148.36775932 169.2038617 148.36775932 169.2038617 145 171 C144.01 171 143.02 171 142 171 C142 186.18 142 201.36 142 217 C143.65 217.33 145.3 217.66 147 218 C165.10261946 225.48701901 177.11548839 238.70386692 185.07421875 256.38671875 C185.90599599 258.58179917 186.49041121 260.7087662 187 263 C187.20238281 263.89460938 187.40476562 264.78921875 187.61328125 265.7109375 C192.34351558 291.77549401 190.24076544 321.01807284 175.0234375 343.37890625 C164.61384676 356.86314445 151.71639325 365.29504741 135 369 C133.44085832 369.17818762 131.87794095 369.32764449 130.3125 369.4375 C126.8436105 369.69336374 124.51718718 370.61915055 121.47265625 372.28125 C115.86143855 375.17259509 110.13728304 377.17190411 104.125 379.0625 C103.04089844 379.40829102 101.95679688 379.75408203 100.83984375 380.11035156 C93.18699411 382.48560589 85.54406601 384.35267799 77.63330078 385.63305664 C72.71073687 386.46696558 68.55629071 387.89143027 64.05517578 390.06445312 C52.83940418 395.17004077 39.21911142 394.17779679 27.87109375 390.19140625 C19.03986445 386.52674647 13.057621 381.09603501 8.125 372.875 C3.93878687 362.17689978 5.96208145 349.50827855 7.1875 338.375 C7.38959063 336.45476383 7.59160715 334.53451946 7.79214478 332.61412048 C7.94115719 331.18733954 8.09090098 329.76063482 8.24130249 328.33399963 C8.93174284 321.75336323 9.5724797 315.16826521 10.20703125 308.58203125 C10.31307175 307.48467651 10.41911224 306.38732178 10.52836609 305.25671387 C10.9561893 300.82865002 11.38400103 296.40059012 11.8074646 291.97210693 C13.04308656 279.07015536 14.39902776 266.1941995 16.00549316 253.33256531 C16.81808469 246.78119894 17.43761046 240.26578464 17.7890625 233.671875 C18 231 18 231 18.5 228.58984375 C19.13011928 225.32602278 19.23049798 222.13260596 19.375 218.8125 C20.19184831 204.97323705 24.5161602 196.804538 34.6796875 187.54296875 C40.99638709 183.34246986 47.22164416 182.47110192 54.6875 182.5625 C56.00306885 182.57494751 56.00306885 182.57494751 57.34521484 182.58764648 C68.46355885 182.87453856 76.79660542 185.64362596 85.6484375 192.390625 C88.62541252 194.42802318 91.53554183 195.44427257 94.9921875 196.39453125 C97 197 97 197 99.0546875 198.03515625 C101.63426675 199.31458612 104.16427368 199.61331005 107 200 C107 200.66 107 201.32 107 202 C107.99 202 108.98 202 110 202 C110 191.77 110 181.54 110 171 C108.35 170.34 106.7 169.68 105 169 C99.34162731 164.41072077 97.76486559 158.79427529 96 152 C84.74419215 113.71217169 60.95930706 83.51456079 26.03491211 64.12426758 C-5.62466159 47.11434848 -45.4672578 42.74045904 -80.0625 52.6640625 C-116.64998613 63.90886684 -146.91362436 87.32183544 -165.265625 121.08984375 C-170.93950554 131.91180405 -175.62426324 143.26647346 -178.625 155.125 C-180.14335336 160.9789982 -182.2384635 164.66123226 -187.125 168.375 C-190 170 -190 170 -192 170 C-191.67 180.23 -191.34 190.46 -191 201 C-189.35 200.67 -187.7 200.34 -186 200 C-185.67 200.33 -185.34 200.66 -185 201 C-184.54625 200.360625 -184.0925 199.72125 -183.625 199.0625 C-180.16982832 196.34772225 -177.53916767 196.51975273 -173.2421875 196.46875 C-172.13230469 196.23671875 -172.13230469 196.23671875 -171 196 C-169.93372586 194.13355755 -169.93372586 194.13355755 -169 192 C-166.93359375 190.40234375 -166.93359375 190.40234375 -164.4375 188.9375 C-163.63183594 188.45152344 -162.82617188 187.96554688 -161.99609375 187.46484375 C-154.16853034 183.63780819 -147.25596947 182.47704695 -138.5625 182.5 C-137.58990234 182.47164062 -136.61730469 182.44328125 -135.61523438 182.4140625 C-125.56236281 182.38720112 -118.44570334 186.40361628 -110.88671875 192.765625 C-104.34534566 200.51234427 -102.93508023 208.20932594 -101.875 218.125 C-101.71567527 219.49103999 -101.55500352 220.85692348 -101.39306641 222.22265625 C-100.89694743 226.47855152 -100.44355944 230.73834563 -100 235 C-99.92845703 235.68171265 -99.85691406 236.36342529 -99.78320312 237.0657959 C-98.46108745 249.70246228 -97.29984589 262.35262522 -96.23535156 275.01342773 C-95.50703326 283.67542917 -94.65092395 292.30540159 -93.625 300.9375 C-92.34439097 311.73660306 -91.18453463 322.54541261 -90.08685303 333.36453247 C-89.90558089 335.14714932 -89.72270829 336.92960423 -89.53814697 338.71188354 C-89.27730887 341.23586181 -89.02261448 343.76038997 -88.76953125 346.28515625 C-88.69155807 347.03113068 -88.6135849 347.7771051 -88.5332489 348.54568481 C-87.42511487 359.81695021 -87.50004833 369.48503104 -94.1875 379.125 C-101.70833351 387.64322003 -110.39219675 391.81742962 -121.62109375 392.703125 C-123.99649173 392.79017891 -126.37316786 392.84737942 -128.75 392.875 C-129.8738208 392.8951416 -130.9976416 392.9152832 -132.15551758 392.93603516 C-139.60348708 392.78199574 -144.55046437 391.04581354 -151.03027344 387.46582031 C-155.89582533 385.06424406 -160.93346931 384.30984742 -166.25 383.4375 C-178.658826 381.176242 -190.3066044 378.32604876 -201.75390625 372.89453125 C-204.50408542 371.7992425 -207.2323669 371.19011373 -210.125 370.5625 C-229.89201845 366.24423779 -247.06765691 358.0000177 -258.4765625 340.51171875 C-258.97929687 339.68285156 -259.48203125 338.85398437 -260 338 C-260.46148437 337.24332031 -260.92296875 336.48664063 -261.3984375 335.70703125 C-269.25315989 321.49712437 -270.18712688 305.06674269 -270.18530273 289.19848633 C-270.187492 287.07027246 -270.20571563 284.942576 -270.22460938 282.81445312 C-270.3106763 262.2516557 -264.27523836 245.66905164 -249.859375 230.765625 C-243.64989602 224.75973549 -233.13105094 216 -224 216 C-224 201.15 -224 186.3 -224 171 C-225.65 170.34 -227.3 169.68 -229 169 C-232.71187622 165.71973729 -235.60783812 162.83361445 -236.30297852 157.81079102 C-236.34114722 151.07575035 -235.00684174 145.32150075 -232.9375 138.9375 C-232.62022949 137.93380371 -232.30295898 136.93010742 -231.97607422 135.89599609 C-215.20679829 83.88057027 -178.88194528 41.39690361 -130.50927734 16.09936523 C-89.17459312 -4.72912574 -45.0163286 -7.47042851 0 0 Z " fill="#053FC6" transform="translate(361,53)"/>
<path d="M0 0 C1.31556885 0.01244751 1.31556885 0.01244751 2.65771484 0.02514648 C14.30128827 0.32559131 24.58394667 3.39902461 33.3125 11.4375 C33.8075 12.9225 33.8075 12.9225 34.3125 14.4375 C35.3025 14.9325 35.3025 14.9325 36.3125 15.4375 C38.16334049 21.25990173 38.60762539 26.57180793 38.578125 32.6484375 C38.58235474 33.95763153 38.58235474 33.95763153 38.58666992 35.29327393 C38.59093452 38.13318156 38.57833157 40.9726374 38.5625 43.8125 C38.55939819 44.79079773 38.55629639 45.76909546 38.55310059 46.77703857 C38.44754923 75.2625653 36.40860996 103.2374479 32.81054688 131.48193359 C32.32788439 135.31531479 31.86948737 139.15066343 31.421875 142.98828125 C31.28644287 144.14706787 31.15101074 145.30585449 31.01147461 146.49975586 C30.76150669 148.64240569 30.51227089 150.78514112 30.26391602 152.92797852 C30.15233154 153.86697998 30.04074707 154.80598145 29.92578125 155.7734375 C29.83079346 156.58345215 29.73580566 157.3934668 29.63793945 158.22802734 C29.32553691 160.34898985 28.83644527 162.36093386 28.3125 164.4375 C28.18620083 166.33198759 28.08500336 168.22821083 28 170.125 C27.16627036 181.48937627 25.66828423 195.97332598 16.63671875 203.91015625 C7.06335224 210.70863392 -5.35172507 211.5002289 -16.6875 210.4375 C-28.68089732 207.99147818 -37.37247661 203.27494525 -44.6875 193.4375 C-51.3278833 182.3701945 -48.84972935 168.07517774 -47.5 155.8125 C-47.29790937 153.89226383 -47.09589285 151.97201946 -46.89535522 150.05162048 C-46.74634281 148.62483954 -46.59659902 147.19813482 -46.44619751 145.77149963 C-45.75575716 139.19086323 -45.1150203 132.60576521 -44.48046875 126.01953125 C-44.37442825 124.92217651 -44.26838776 123.82482178 -44.15913391 122.69421387 C-43.7313107 118.26615002 -43.30349897 113.83809012 -42.8800354 109.40960693 C-41.64441344 96.50765536 -40.28847224 83.6316995 -38.68200684 70.77006531 C-37.86941531 64.21869894 -37.24988954 57.70328464 -36.8984375 51.109375 C-36.6875 48.4375 -36.6875 48.4375 -36.1875 46.02734375 C-35.55738072 42.76352278 -35.45700202 39.57010596 -35.3125 36.25 C-34.49565169 22.41073705 -30.1713398 14.242038 -20.0078125 4.98046875 C-13.69111291 0.77996986 -7.46585584 -0.09139808 0 0 Z " fill="#2B3A54" transform="translate(415.6875,235.5625)"/>
<path d="M0 0 C0.97259766 -0.02835938 1.94519531 -0.05671875 2.94726562 -0.0859375 C13.00013719 -0.11279888 20.11679666 3.90361628 27.67578125 10.265625 C34.21715434 18.01234427 35.62741977 25.70932594 36.6875 35.625 C36.84682473 36.99103999 37.00749648 38.35692348 37.16943359 39.72265625 C37.66555257 43.97855152 38.11894056 48.23834563 38.5625 52.5 C38.63404297 53.18171265 38.70558594 53.86342529 38.77929688 54.5657959 C40.10141255 67.20246228 41.26265411 79.85262522 42.32714844 92.51342773 C43.05546674 101.17542917 43.91157605 109.80540159 44.9375 118.4375 C46.21810903 129.23660306 47.37796537 140.04541261 48.47564697 150.86453247 C48.65691911 152.64714932 48.83979171 154.42960423 49.02435303 156.21188354 C49.28519113 158.73586181 49.53988552 161.26038997 49.79296875 163.78515625 C49.90992851 164.90411789 49.90992851 164.90411789 50.0292511 166.04568481 C51.13738513 177.31695021 51.06245167 186.98503104 44.375 196.625 C36.85416649 205.14322003 28.17030325 209.31742962 16.94140625 210.203125 C14.56600827 210.29017891 12.18933214 210.34737942 9.8125 210.375 C8.6886792 210.3951416 7.5648584 210.4152832 6.40698242 210.43603516 C-2.88566854 210.24384392 -10.91821788 207.97315687 -17.66210938 201.2980957 C-22.42632745 195.16323924 -23.80435092 189.15285623 -24.6875 181.5625 C-24.99325695 179.33330141 -25.2992484 177.10413498 -25.60546875 174.875 C-25.7451709 173.78703125 -25.88487305 172.6990625 -26.02880859 171.578125 C-26.48594219 168.13514985 -27.0418836 164.71751704 -27.62402344 161.29394531 C-31.71688186 137.00256483 -33.41990005 112.44339585 -35.12280273 87.89501953 C-35.30684191 85.26279778 -35.51192166 82.63651565 -35.73852539 80.00732422 C-36.6004849 69.75470491 -36.62361812 59.51197257 -36.62280273 49.22998047 C-36.62501046 46.11021693 -36.64329243 42.99079607 -36.66210938 39.87109375 C-36.66504056 37.86458452 -36.66702719 35.85807365 -36.66796875 33.8515625 C-36.67515427 32.9305777 -36.68233978 32.0095929 -36.68974304 31.06069946 C-36.64403769 18.05958372 -36.64403769 18.05958372 -32.875 13.6875 C-32.400625 13.295625 -31.92625 12.90375 -31.4375 12.5 C-31.1075 11.51 -30.7775 10.52 -30.4375 9.5 C-28.46875 8 -28.46875 8 -25.9375 6.5 C-25.1228125 6.005 -24.308125 5.51 -23.46875 5 C-15.64111669 1.12653197 -8.70974525 -0.02299603 0 0 Z " fill="#2C3B54" transform="translate(222.4375,235.5)"/>
<path d="M0 0 C1.21647217 0.19166748 1.21647217 0.19166748 2.45751953 0.38720703 C37.78061536 6.00586108 71.12076767 25.94608308 96.50927734 50.55615234 C97.9496267 51.95121066 99.40619733 53.32946078 100.86328125 54.70703125 C114.51193227 67.89236173 125.54868944 83.59788767 134.6875 100.1875 C135.03901123 100.81132568 135.39052246 101.43515137 135.75268555 102.07788086 C138.09849241 106.48330251 138.09849241 106.48330251 137.58129883 109.1965332 C137.38947021 109.79167725 137.1976416 110.38682129 137 111 C135.93007813 110.67644531 134.86015625 110.35289062 133.7578125 110.01953125 C127.18312074 108.37079195 120.40661845 108.67674599 113.66796875 108.69726562 C104.94692172 108.52765932 104.94692172 108.52765932 101.40625 105.625 C95 98.63636364 95 98.63636364 95 96 C94.34 96 93.68 96 93 96 C91.84375 94.41796875 91.84375 94.41796875 90.5 92.1875 C87.28167088 87.18295887 83.48580742 82.96005883 79.4296875 78.62109375 C77.43087177 76.46481505 75.55312071 74.26937445 73.6875 72 C51.99649818 47.22472986 20.54537336 34.88243643 -11 29 C-11.68964844 28.86577637 -12.37929688 28.73155273 -13.08984375 28.59326172 C-39.40492161 23.64875317 -68.62001876 25.97985329 -94 34 C-95.15628906 34.34675781 -96.31257813 34.69351563 -97.50390625 35.05078125 C-112.7282883 39.99376243 -127.53568797 47.97178691 -140 58 C-143.75681818 61 -143.75681818 61 -146 61 C-146 61.66 -146 62.32 -146 63 C-151.47619048 68 -151.47619048 68 -154 68 C-154 68.66 -154 69.32 -154 70 C-155.4540625 71.175625 -155.4540625 71.175625 -156.9375 72.375 C-161.52095382 76.11659496 -164.69584967 80.7951608 -168.08203125 85.5859375 C-168.71496094 86.38257813 -169.34789062 87.17921875 -170 88 C-170.66 88 -171.32 88 -172 88 C-172.20625 88.680625 -172.4125 89.36125 -172.625 90.0625 C-175.30572543 95.78950433 -179.29644089 100.20954904 -185 103 C-188.19750091 103.88264537 -191.42906782 104.51112807 -194.6875 105.125 C-196.40019173 105.45862471 -198.11245551 105.79445619 -199.82421875 106.1328125 C-200.95476685 106.34768311 -200.95476685 106.34768311 -202.1081543 106.56689453 C-204.07396409 106.9385088 -204.07396409 106.9385088 -206 108 C-208.37402501 108.07116382 -210.75000677 108.08409085 -213.125 108.0625 C-215.04699219 108.04896484 -215.04699219 108.04896484 -217.0078125 108.03515625 C-217.99523437 108.02355469 -218.98265625 108.01195312 -220 108 C-217.87663838 101.68749782 -215.04052468 96.39950118 -211.4375 90.8125 C-210.90664795 89.98242432 -210.3757959 89.15234863 -209.82885742 88.29711914 C-181.04487704 43.82842908 -137.10289944 11.53882148 -85.125 0.0625 C-56.50380392 -5.80299484 -28.74044435 -4.76945681 0 0 Z " fill="#2B73EF" transform="translate(361,53)"/>
<path d="M0 0 C0.33 0 0.66 0 1 0 C1 10.56 1 21.12 1 32 C3.31 32.33 5.62 32.66 8 33 C14.83678424 35.41694767 25.19065664 39.3481977 29.09667969 45.81591797 C30.09203556 48.22252706 30.24429946 49.87817819 30.23046875 52.47265625 C30.22942139 53.35759766 30.22837402 54.24253906 30.22729492 55.15429688 C30.2141626 56.11400391 30.20103027 57.07371094 30.1875 58.0625 C30.17887939 59.07763672 30.17025879 60.09277344 30.16137695 61.13867188 C30.12410886 64.42626787 30.06544465 67.71284997 30 71 C29.97099609 72.59497314 29.97099609 72.59497314 29.94140625 74.22216797 C29.5907859 91.1782711 28.24898247 107.96522785 26.44140625 124.82373047 C26.05733578 128.4208861 25.69984359 132.0202487 25.34738159 135.62062073 C23.34027902 156.00275152 20.40655791 175.98874798 16 196 C15.84901855 196.75627686 15.69803711 197.51255371 15.54248047 198.29174805 C15 200 15 200 13.05078125 201.23828125 C-23.20544897 215.46148141 -23.20544897 215.46148141 -38 215 C-37.68546875 214.54753906 -37.3709375 214.09507812 -37.046875 213.62890625 C-30.66150864 203.45463274 -28.89690784 191.2180148 -28.265625 179.41015625 C-27.96722431 175.57921794 -27.34413841 171.84354105 -26.6875 168.0625 C-24.65618845 156.1428203 -23.57198859 144.10045948 -22.3581543 132.07641602 C-22.27543777 131.26139618 -22.19272125 130.44637634 -22.10749817 129.60665894 C-21.95182174 128.06733149 -21.79804432 126.52781033 -21.64653015 124.98806763 C-21.33931013 121.93616282 -20.98595783 118.91614858 -20.47924805 115.89038086 C-19.5194936 110.10202989 -19.29562823 104.22633579 -18.9375 98.375 C-18.89297699 97.65322571 -18.84845398 96.93145142 -18.80258179 96.18780518 C-17.99100658 82.58508698 -17.80697752 68.99965982 -17.8125 55.375 C-17.81168427 54.41648132 -17.81086853 53.45796265 -17.81002808 52.47039795 C-17.81029397 49.71716908 -17.81912049 46.96413367 -17.83203125 44.2109375 C-17.83322968 43.39761963 -17.8344281 42.58430176 -17.83566284 41.74633789 C-17.87639949 36.75156808 -18.29301565 31.94571698 -19 27 C-19.99 26.67 -20.98 26.34 -22 26 C-21.67 25.34 -21.34 24.68 -21 24 C-20.05640625 24.29003906 -20.05640625 24.29003906 -19.09375 24.5859375 C-13.75783615 26.2092125 -8.42240732 27.69460565 -3 29 C-3 29.66 -3 30.32 -3 31 C-2.01 31 -1.02 31 0 31 C0 20.77 0 10.54 0 0 Z " fill="#5AA3FA" transform="translate(471,224)"/>
<path d="M0 0 C0.33 0 0.66 0 1 0 C1.33 9.9 1.66 19.8 2 30 C3.65 29.67 5.3 29.34 7 29 C7.33 29.33 7.66 29.66 8 30 C8.45375 29.360625 8.9075 28.72125 9.375 28.0625 C13.25013836 25.01774843 17.1922647 25.18350135 22 25 C22.495 23.515 22.495 23.515 23 22 C23.495 22.99 23.495 22.99 24 24 C23.34 24.99 22.68 25.98 22 27 C21.34 27 20.68 27 20 27 C19.14000836 32.95646082 18.8404192 38.73985366 18.83203125 44.75390625 C18.82574707 46.14226433 18.82574707 46.14226433 18.81933594 47.55867004 C18.80956674 50.5599901 18.80954904 53.56116665 18.8125 56.5625 C18.81277191 57.59231995 18.81304382 58.62213989 18.81332397 59.6831665 C18.83457742 77.20791003 19.47601569 94.53565007 21 112 C21.16072998 113.92610107 21.16072998 113.92610107 21.32470703 115.89111328 C23.56684421 142.68926529 26.3768712 169.49625991 31.61694336 195.89038086 C31.97541706 197.86461364 32.2186814 199.8587919 32.453125 201.8515625 C32.99672783 204.98116165 33.58150963 206.40257724 35.5625 208.8125 C38 211.83002833 38 211.83002833 38 214 C29.50792472 213.5497685 21.63841858 211.87900597 13.4375 209.6875 C12.28314453 209.39166016 11.12878906 209.09582031 9.93945312 208.79101562 C-6.15265267 204.56489822 -6.15265267 204.56489822 -13 200 C-14.65549531 199.61500109 -16.3222433 199.27206865 -18 199 C-16.515 198.01 -16.515 198.01 -15 197 C-15.19480957 196.33790527 -15.38961914 195.67581055 -15.59033203 194.99365234 C-17.51349433 188.24066287 -18.89764137 181.57480646 -19.875 174.625 C-20.03790527 173.46782471 -20.20081055 172.31064941 -20.36865234 171.1184082 C-24.25697713 142.03963129 -26.82445464 112.67149239 -28.3125 83.375 C-28.35183655 82.61472504 -28.3911731 81.85445007 -28.43170166 81.07113647 C-28.64641301 76.79315062 -28.81399253 72.51648793 -28.93170166 68.23474121 C-28.9800698 66.65212174 -29.03975339 65.06982942 -29.10736084 63.48791504 C-29.21526645 60.90096116 -29.28854829 58.31486677 -29.35546875 55.7265625 C-29.41448112 54.53055923 -29.41448112 54.53055923 -29.47468567 53.31039429 C-29.54576599 49.02529945 -29.41439242 47.51218615 -26.61645508 44.05395508 C-18.77314081 37.89683994 -10.10307694 34.20142013 -1 30 C-0.67 20.1 -0.34 10.2 0 0 Z " fill="#5EA6FB" transform="translate(168,224)"/>
<path d="M0 0 C14.15873056 1.52648814 26.59369346 11.6752713 35.53417969 22.14746094 C41.27536312 29.40330702 45.98321872 37.93206614 48 47 C48.20238281 47.89460938 48.40476562 48.78921875 48.61328125 49.7109375 C53.34351558 75.77549401 51.24076544 105.01807284 36.0234375 127.37890625 C25.10504974 141.52222322 10.67511641 150.94126065 -7.2578125 153.45703125 C-9.84099831 153.70477925 -12.40749279 153.8960919 -15 154 C-14.75765625 153.05125 -14.5153125 152.1025 -14.265625 151.125 C-8.46042069 127.83103249 -5.92372336 104.26460049 -3.70193481 80.41453552 C-3.30864377 76.19931271 -2.89953687 71.98659931 -2.46044922 67.77587891 C-1.49204434 58.47581902 -0.65860442 49.226541 -0.375 39.875 C-0.33705322 38.76406982 -0.29910645 37.65313965 -0.26000977 36.50854492 C0.11715724 24.34084667 0.09863842 12.17198061 0 0 Z " fill="#0C4AD4" transform="translate(500,269)"/>
<path d="M0 0 C-0.33 0.66 -0.66 1.32 -1 2 C-1.10811907 4.71547387 -1.15012499 7.39761649 -1.13671875 10.11328125 C-1.1325721 11.37510979 -1.1325721 11.37510979 -1.12834167 12.66242981 C-1.0416061 23.51995607 -0.44733293 34.35046423 0.1875 45.1875 C0.25180206 46.30218658 0.31610413 47.41687317 0.38235474 48.56533813 C2.64581368 101.39263333 2.64581368 101.39263333 13 153 C-1.5247777 154.53791764 -14.57125644 147.66603136 -25.65234375 138.90234375 C-31.50808715 133.90955201 -36.01354746 128.57253586 -40 122 C-40.69222656 120.86498047 -40.69222656 120.86498047 -41.3984375 119.70703125 C-49.25315989 105.49712437 -50.18712688 89.06674269 -50.18530273 73.19848633 C-50.187492 71.07027246 -50.20571563 68.942576 -50.22460938 66.81445312 C-50.31067117 46.25288028 -44.27736359 29.65732098 -29.8515625 14.76171875 C-23.58238036 8.69005879 -9.19062977 -3.72953092 0 0 Z " fill="#0C4AD3" transform="translate(141,269)"/>
<path d="M0 0 C0.33 0.66 0.66 1.32 1 2 C0.01 3.485 0.01 3.485 -1 5 C-1.66 5 -2.32 5 -3 5 C-3.85999164 10.95646082 -4.1595808 16.73985366 -4.16796875 22.75390625 C-4.1721582 23.6794783 -4.17634766 24.60505035 -4.18066406 25.55867004 C-4.19043326 28.5599901 -4.19045096 31.56116665 -4.1875 34.5625 C-4.18722809 35.59231995 -4.18695618 36.62213989 -4.18667603 37.6831665 C-4.16542258 55.20791003 -3.52398431 72.53565007 -2 90 C-1.89284668 91.28406738 -1.78569336 92.56813477 -1.67529297 93.89111328 C0.56684421 120.68926529 3.3768712 147.49625991 8.61694336 173.89038086 C8.97541706 175.86461364 9.2186814 177.8587919 9.453125 179.8515625 C9.99672783 182.98116165 10.58150963 184.40257724 12.5625 186.8125 C15 189.83002833 15 189.83002833 15 192 C8.74892565 191.57045059 2.95795479 190.98598493 -3 189 C-1.02 188.01 -1.02 188.01 1 187 C0.84442627 186.28384521 0.68885254 185.56769043 0.52856445 184.82983398 C-5.20524334 158.25231979 -10.22968963 131.68297183 -11.78222656 104.48413086 C-11.96937223 101.93950549 -11.96937223 101.93950549 -12.48901367 99.21264648 C-13.10179483 95.36000086 -13.33775172 91.52353057 -13.53515625 87.6328125 C-13.57826935 86.81689636 -13.62138245 86.00098022 -13.665802 85.16033936 C-13.80387939 82.48214832 -13.93435135 79.80368377 -14.0625 77.125 C-14.10702301 76.20736877 -14.15154602 75.28973755 -14.19741821 74.34429932 C-14.86948664 60.18628256 -15.1939626 46.04865201 -15.1875 31.875 C-15.1887236 30.60200043 -15.1887236 30.60200043 -15.18997192 29.30328369 C-15.18970709 26.88699824 -15.18094493 24.47093523 -15.16796875 22.0546875 C-15.16677032 21.35430359 -15.1655719 20.65391968 -15.16433716 19.93231201 C-15.11954447 15.19145369 -14.87042808 10.65630367 -14 6 C-10.83759418 3.89172945 -9.49342531 3.66182535 -5.8125 3.375 C-4.46091797 3.26285156 -4.46091797 3.26285156 -3.08203125 3.1484375 C-2.39496094 3.09945312 -1.70789063 3.05046875 -1 3 C-0.67 2.01 -0.34 1.02 0 0 Z " fill="#2272EE" transform="translate(191,246)"/>
<path d="M0 0 C1.77260631 0.45142775 3.5430368 0.91140523 5.3125 1.375 C6.79169922 1.75785156 6.79169922 1.75785156 8.30078125 2.1484375 C11 3 11 3 14 5 C15.32805003 8.98415009 15.16211428 12.81426541 15.16796875 16.96875 C15.17220352 17.86712585 15.17643829 18.76550171 15.18080139 19.69110107 C15.19075238 22.6274475 15.19070628 25.56363954 15.1875 28.5 C15.18689575 29.50671753 15.1862915 30.51343506 15.18566895 31.55065918 C15.16194421 46.08234606 14.73933387 60.44887069 13.36816406 74.921875 C12.8965308 80.01641941 12.51274831 85.11784758 12.1171875 90.21875 C10.34061223 112.91260734 8.25548677 135.46590122 5 158 C4.82557373 159.23524414 4.65114746 160.47048828 4.47143555 161.74316406 C1.39390214 183.51129072 1.39390214 183.51129072 -2 188 C-6.58959022 190.33474319 -10.87368756 191.1630276 -16 191 C-15.68546875 190.54753906 -15.3709375 190.09507812 -15.046875 189.62890625 C-8.66150864 179.45463274 -6.89690784 167.2180148 -6.265625 155.41015625 C-5.96722431 151.57921794 -5.34413841 147.84354105 -4.6875 144.0625 C-2.65618845 132.1428203 -1.57198859 120.10045948 -0.3581543 108.07641602 C-0.27543777 107.26139618 -0.19272125 106.44637634 -0.10749817 105.60665894 C0.04817826 104.06733149 0.20195568 102.52781033 0.35346985 100.98806763 C0.66068987 97.93616282 1.01404217 94.91614858 1.52075195 91.89038086 C2.4805064 86.10202989 2.70437177 80.22633579 3.0625 74.375 C3.10702301 73.65322571 3.15154602 72.93145142 3.19741821 72.18780518 C4.00899342 58.58508698 4.19302248 44.99965982 4.1875 31.375 C4.18831573 30.41648132 4.18913147 29.45796265 4.18997192 28.47039795 C4.18970603 25.71716908 4.18087951 22.96413367 4.16796875 20.2109375 C4.16677032 19.39761963 4.1655719 18.58430176 4.16433716 17.74633789 C4.12360051 12.75156808 3.70698435 7.94571698 3 3 C2.01 2.67 1.02 2.34 0 2 C0 1.34 0 0.68 0 0 Z " fill="#1964E7" transform="translate(449,248)"/>
<path d="M0 0 C0.99 0.33 1.98 0.66 3 1 C8.47028139 1.9312585 13.90575421 2.29031348 19.4375 2.5625 C22.263125 2.706875 25.08875 2.85125 28 3 C28 12.9 28 22.8 28 33 C25.545625 34.19625 23.09125 35.3925 20.5625 36.625 C15.02827752 39.34268358 9.8738393 42.16065648 4.9921875 45.96875 C2.28718405 47.36898708 0.00553915 47.06736817 -3 47 C-3.07408447 40.78868226 -3.12857114 34.57762095 -3.16479492 28.3659668 C-3.1798936 26.25231446 -3.20037426 24.13869352 -3.22631836 22.02514648 C-3.26265397 18.98934185 -3.27971544 15.95395094 -3.29296875 12.91796875 C-3.30845261 11.97100632 -3.32393646 11.02404388 -3.33988953 10.04838562 C-3.34011612 9.16769913 -3.34034271 8.28701263 -3.34057617 7.37963867 C-3.34723801 6.60464523 -3.35389984 5.82965179 -3.36076355 5.03117371 C-2.91092828 2.4985077 -1.94700642 1.6146196 0 0 Z " fill="#0845B4" transform="translate(140,221)"/>
<path d="M0 0 C0.67998047 -0.00386719 1.35996094 -0.00773438 2.06054688 -0.01171875 C5.47686108 -0.00503974 8.21587602 0.288344 11.5625 1.125 C11.5625 15.975 11.5625 30.825 11.5625 46.125 C7.02194771 45.21688954 6.09506654 45.02150383 2.8125 42.4375 C-3.90650547 37.71015885 -11.70158811 35.68333307 -19.4375 33.125 C-19.4375 22.565 -19.4375 12.005 -19.4375 1.125 C-12.85482347 0.52657486 -6.56116 -0.03886176 0 0 Z " fill="#0846B5" transform="translate(491.4375,222.875)"/>
<path d="M0 0 C-0.33 0.66 -0.66 1.32 -1 2 C-1.10396652 4.63585711 -1.14025457 7.23895547 -1.125 9.875 C-1.12209961 11.09183472 -1.12209961 11.09183472 -1.11914062 12.33325195 C-1.03794357 24.56130308 -0.49430349 36.78307901 0 49 C-0.33 49 -0.66 49 -1 49 C-2.60160815 33.34155914 -3.51442528 17.73183148 -4 2 C-6.97 2.66 -9.94 3.32 -13 4 C-8.93522219 0.68795882 -5.26054188 -1.94834884 0 0 Z " fill="#266AEA" transform="translate(141,269)"/>
<path d="M0 0 C1.65 0 3.3 0 5 0 C4.01 0.495 4.01 0.495 3 1 C3.08378906 2.26714844 3.16757812 3.53429687 3.25390625 4.83984375 C3.35717221 6.53903815 3.46001409 8.23825837 3.5625 9.9375 C3.61857422 10.76830078 3.67464844 11.59910156 3.73242188 12.45507812 C4.0620139 18.10208811 3.76511263 23.40259708 3 29 C2.80871821 30.85378034 2.62035093 32.70786909 2.4375 34.5625 C2.35371094 35.40941406 2.26992188 36.25632812 2.18359375 37.12890625 C2.09271484 38.05509766 2.09271484 38.05509766 2 39 C1.67 39 1.34 39 1 39 C0.67 26.13 0.34 13.26 0 0 Z " fill="#84BFF9" transform="translate(463,253)"/>
<path d="M0 0 C0 3 0 3 -2.484375 5.55859375 C-3.56551507 6.52656029 -4.65443672 7.48588864 -5.75 8.4375 C-6.82883038 9.39373602 -7.9069688 10.35075336 -8.984375 11.30859375 C-9.7568457 11.99091064 -9.7568457 11.99091064 -10.54492188 12.68701172 C-12.4329792 14.39069834 -14.22594085 16.17857519 -16 18 C-16.66 17.67 -17.32 17.34 -18 17 C-6.66287016 4.14578588 -6.66287016 4.14578588 0 0 Z " fill="#2B6BE9" transform="translate(121,276)"/>
<path d="M0 0 C-0.74765625 0.38671875 -1.4953125 0.7734375 -2.265625 1.171875 C-3.25046875 1.69265625 -4.2353125 2.2134375 -5.25 2.75 C-6.22453125 3.26046875 -7.1990625 3.7709375 -8.203125 4.296875 C-10.96306825 5.97751083 -12.93859292 7.51867666 -15 10 C-15.80765878 13.64721696 -15.80765878 13.64721696 -16 17 C-16.33 17 -16.66 17 -17 17 C-17.65109238 13.80964736 -17.83465728 11.16767524 -17 8 C-14.0288213 5.0288213 -10.67257124 3.00878518 -7 1 C-5.94039062 0.37931641 -5.94039062 0.37931641 -4.859375 -0.25390625 C-3 -1 -3 -1 0 0 Z " fill="#97CBFA" transform="translate(157,261)"/>
<path d="M0 0 C6 1 6 1 8 3 C6.35 3 4.7 3 3 3 C2.67 6.96 2.34 10.92 2 15 C1.67 15 1.34 15 1 15 C0.67 10.05 0.34 5.1 0 0 Z " fill="#1E65E8" transform="translate(500,269)"/>
<path d="M0 0 C1.5 1.375 1.5 1.375 3 3 C3 3.66 3 4.32 3 5 C1.18674449 4.88648483 -0.62563357 4.75887039 -2.4375 4.625 C-3.95150391 4.52058594 -3.95150391 4.52058594 -5.49609375 4.4140625 C-6.32238281 4.27742188 -7.14867187 4.14078125 -8 4 C-8.33 3.34 -8.66 2.68 -9 2 C-6.03 2.33 -3.06 2.66 0 3 C0 2.01 0 1.02 0 0 Z " fill="#2E65CB" transform="translate(203,433)"/>
<path d="M0 0 C0 0.99 0 1.98 0 3 C-2.8125 5.75 -2.8125 5.75 -6 8 C-6.99 7.67 -7.98 7.34 -9 7 C-6.03 4.69 -3.06 2.38 0 0 Z " fill="#3774E7" transform="translate(121,276)"/>
<path d="M0 0 C0.66 0.66 1.32 1.32 2 2 C1.6442194 5.37991574 0.64284201 8.04288438 -1 11 C-2.60080151 6.99799622 -1.29279692 3.95443764 0 0 Z " fill="#2B60DA" transform="translate(127,196)"/>
<path d="M0 0 C0.33 0.66 0.66 1.32 1 2 C0.01 3.485 0.01 3.485 -1 5 C-1.66 5 -2.32 5 -3 5 C-3.33 5.99 -3.66 6.98 -4 8 C-4 7.01 -4 6.02 -4 5 C-4.66 4.67 -5.32 4.34 -6 4 C-4.35 3.67 -2.7 3.34 -1 3 C-0.67 2.01 -0.34 1.02 0 0 Z " fill="#4A79C1" transform="translate(191,246)"/>
</svg>
