<?xml version="1.0" encoding="UTF-8"?>
<svg version="1.1" xmlns="http://www.w3.org/2000/svg" width="642" height="439">
<path d="M0 0 C211.86 0 423.72 0 642 0 C642 144.87 642 289.74 642 439 C430.14 439 218.28 439 0 439 C0 294.13 0 149.26 0 0 Z " fill="#ECEDF2" transform="translate(0,0)"/>
<path d="M0 0 C211.86 0 423.72 0 642 0 C642 144.87 642 289.74 642 439 C430.14 439 218.28 439 0 439 C0 294.13 0 149.26 0 0 Z M136.25 49.25 C135.46157715 49.35924805 134.6731543 49.46849609 133.86083984 49.58105469 C127.85393536 50.6168685 123.83466079 53.11705866 119.625 57.4375 C117.15606175 62.85017232 117.68716046 68.14294861 118 74 C116.73027344 74.12117188 115.46054688 74.24234375 114.15234375 74.3671875 C109.64839231 74.80159436 105.14744723 75.26200932 100.64697266 75.73095703 C98.28012216 75.97152789 95.91241076 76.18930538 93.54296875 76.40234375 C92.25003906 76.53769531 90.95710938 76.67304687 89.625 76.8125 C87.91183594 76.97685547 87.91183594 76.97685547 86.1640625 77.14453125 C82.18555994 78.22020046 79.38951745 79.63370067 77 83 C76.09553525 86.87471988 76.19496304 90.68922687 76.24482727 94.65307617 C76.23617289 95.84621776 76.22751851 97.03935934 76.21860188 98.26865673 C76.20074133 101.57770084 76.20980622 104.88468808 76.23031104 108.19358587 C76.24593708 111.76287544 76.22702215 115.33200461 76.21250916 118.90127563 C76.18967232 125.89217299 76.19916706 132.88267076 76.22001002 139.87356019 C76.23628809 145.55468282 76.24049506 151.23569633 76.23604393 156.9168396 C76.23541325 157.72512402 76.23478258 158.53340844 76.23413279 159.36618632 C76.23278675 161.00815402 76.23140718 162.6501217 76.22999444 164.29208934 C76.21805481 179.69218151 76.24213095 195.09205452 76.27901252 210.49209678 C76.30990592 223.70867602 76.3122769 236.92500291 76.29321289 250.14160156 C76.27110489 265.48620795 76.26495283 280.83067285 76.28553551 296.17528629 C76.28769847 297.81124431 76.28984757 299.44720235 76.29198265 301.0831604 C76.29304902 301.8881021 76.29411538 302.6930438 76.29521406 303.52237767 C76.301686 309.19726673 76.296915 314.87208303 76.28795815 320.54696655 C76.27742657 327.46197399 76.28491009 334.37668542 76.31541393 341.29163814 C76.33055132 344.82045791 76.33769551 348.34881027 76.32322311 351.87764359 C76.30782525 355.70102137 76.33109742 359.52359909 76.35835266 363.34692383 C76.34788117 364.46510592 76.33740968 365.58328802 76.32662088 366.73535442 C76.27099918 373.03627487 76.27099918 373.03627487 79.47760296 378.16581726 C80.30999398 378.77109756 81.14238501 379.37637787 82 380 C82.33 380.33 82.66 380.66 83 381 C93.03370121 381.81269854 103.02897177 380.67005699 113 379.625 C168.81585922 373.84302643 233.34259012 369.37771095 287 389 C288.44660778 389.51434205 289.89322264 390.02866418 291.33984375 390.54296875 C297.16495418 392.65150374 302.72124256 394.68943906 308 398 C317.8381143 403.11919009 331.43569223 402.38843506 341.8125 399.375 C347.24531414 397.453142 352.38289594 394.98004172 357.58203125 392.5078125 C377.04171852 383.92331046 399.00882248 380.29324532 420 378 C420.90508301 377.89558594 421.81016602 377.79117187 422.74267578 377.68359375 C443.75640917 375.33510931 464.89059175 375.70091111 486 376 C486.70114929 376.00966797 487.40229858 376.01933594 488.12469482 376.02929688 C504.38762184 376.2689495 520.41622243 377.50883849 536.578125 379.30078125 C543.71228834 380.09174284 550.82609134 380.70146408 558 381 C559.11503906 381.05285156 560.23007812 381.10570312 561.37890625 381.16015625 C562.45011719 381.18980469 563.52132813 381.21945312 564.625 381.25 C565.54539062 381.27578125 566.46578125 381.3015625 567.4140625 381.328125 C570.6012194 380.92371234 572.41804855 379.88579389 575 378 C577.16639641 374.75040539 577.25076765 373.86789197 577.25447559 370.1157856 C577.26030779 369.10271123 577.26613998 368.08963686 577.27214891 367.04586327 C577.26836958 365.92963739 577.26459026 364.81341151 577.26069641 363.6633606 C577.26452196 362.48009497 577.26834751 361.29682934 577.27228898 360.07770717 C577.28084205 356.78760561 577.28037785 353.49772673 577.27610838 350.20763135 C577.27364781 346.66153097 577.28264702 343.11545718 577.29014587 339.56936646 C577.30291393 332.61976382 577.30468392 325.67019978 577.30234561 318.72058739 C577.30056451 313.07281351 577.30230762 307.42505137 577.30657005 301.7772789 C577.30746284 300.57277189 577.30746284 300.57277189 577.30837366 299.3439314 C577.30958538 297.71275466 577.31079951 296.08157791 577.31201603 294.45040117 C577.32289985 279.14291785 577.3207252 263.83545654 577.31463119 248.52797197 C577.30946221 234.51854993 577.32071546 220.50919742 577.33972941 206.49978913 C577.35909335 192.12251565 577.36736629 177.74527508 577.36360615 163.36798847 C577.36169179 155.29322642 577.36420442 147.21852356 577.37832069 139.14377213 C577.39021715 132.26905925 577.39165901 125.39444198 577.37953053 118.51972784 C577.37362935 115.01126375 577.37257631 111.50297467 577.38453293 107.99452209 C577.39733742 104.19312958 577.38695653 100.39200414 577.3742218 96.59060669 C577.38159609 95.47884225 577.38897037 94.36707781 577.39656812 93.22162354 C577.45375213 86.07316888 577.45375213 86.07316888 574 80 C570.86172959 77.90781973 569.43481671 77.61176591 565.78125 77.18359375 C564.76675781 77.05919922 563.75226563 76.93480469 562.70703125 76.80664062 C561.64871094 76.68482422 560.59039063 76.56300781 559.5 76.4375 C557.40593764 76.18881415 555.31217077 75.93762384 553.21875 75.68359375 C552.28998047 75.57587646 551.36121094 75.46815918 550.40429688 75.35717773 C548 75 548 75 545 74 C543.43881572 73.93259135 541.8749748 73.91485544 540.3125 73.9375 C539.50425781 73.94652344 538.69601562 73.95554687 537.86328125 73.96484375 C537.24839844 73.97644531 536.63351562 73.98804687 536 74 C536.09539062 73.26394531 536.19078125 72.52789062 536.2890625 71.76953125 C536.39992188 70.79371094 536.51078125 69.81789063 536.625 68.8125 C536.74101563 67.84957031 536.85703125 66.88664062 536.9765625 65.89453125 C537.00804079 62.00696291 536.05349143 59.40681624 533.73046875 56.3046875 C517.6607291 41.41475152 477.49390639 47.3529543 456.75244141 48.12011719 C435.58458663 49.28111394 414.1989351 53.64813362 394 60 C393.28118652 60.22268555 392.56237305 60.44537109 391.82177734 60.67480469 C372.98042457 66.56091137 354.37891321 73.8583284 336.91601562 83.10327148 C331.42647747 85.9847655 327.2335751 87.14617349 321 86 C318.90172011 85.03615599 317.1599243 83.87394857 315.2734375 82.54296875 C306.88639921 76.85073486 297.07793209 73.09414359 287.75 69.25 C286.83976074 68.87327148 285.92952148 68.49654297 284.99169922 68.10839844 C279.83386126 66.01685262 274.68101634 64.23957738 269.33154297 62.70629883 C267.21445639 62.06496569 265.19959846 61.32012121 263.1484375 60.49609375 C257.79135242 58.43866252 252.21965869 57.28799283 246.625 56.0625 C245.44905273 55.80380127 244.27310547 55.54510254 243.06152344 55.27856445 C234.82612708 53.51062179 226.5719969 51.98631232 218.25 50.6875 C217.24146973 50.52838135 216.23293945 50.3692627 215.19384766 50.20532227 C200.31089251 47.99778516 185.38950123 47.76137614 170.375 47.75 C169.44989624 47.74899292 168.52479248 47.74798584 167.57165527 47.74694824 C157.08789875 47.75466657 146.651191 47.77606043 136.25 49.25 Z " fill="#0A54C2" transform="translate(0,0)"/>
<path d="M0 0 C1.87123535 0.00650322 1.87123535 0.00650322 3.78027344 0.01313782 C4.72418945 0.01871201 5.66810547 0.02428619 6.640625 0.0300293 C6.64236125 0.59038154 6.6440975 1.15073377 6.64588636 1.72806638 C6.74880949 34.9044863 6.85689917 68.08088486 6.97174194 101.25726559 C6.98551229 105.23661443 6.99923927 109.21596342 7.01293945 113.1953125 C7.01566776 113.9875631 7.01839606 114.77981371 7.02120704 115.59607191 C7.06533857 128.44114302 7.10595268 141.28622299 7.14527761 154.13130962 C7.18567611 167.30162257 7.22982967 180.47191903 7.27750355 193.64220768 C7.30682545 201.77559996 7.33318277 209.90899094 7.35580397 218.04240466 C7.37343328 224.26846751 7.39627508 230.49450107 7.42111588 236.72053909 C7.43050803 239.28246679 7.43817545 241.84440145 7.44404411 244.40633965 C7.45226867 247.88737818 7.46653476 251.3683392 7.48240662 254.84934998 C7.48338472 255.87753843 7.48436283 256.90572689 7.48537058 257.96507257 C7.49084502 258.89016345 7.49631946 259.81525432 7.5019598 260.76837826 C7.50461784 261.57300564 7.50727589 262.37763302 7.51001447 263.20664304 C7.44202666 265.04969047 7.44202666 265.04969047 8.640625 266.0300293 C13.96557879 266.30078966 18.87898826 265.90443723 24.14575195 265.08764648 C46.14037309 261.86718273 68.39143015 261.69925968 90.57495117 261.76928711 C94.25737658 261.7808185 97.93951452 261.77398949 101.62193012 261.76214218 C104.53317856 261.75483741 107.44436114 261.75724819 110.3556118 261.76239777 C112.35591707 261.76432206 114.35622523 261.75840419 116.35652161 261.75213623 C130.35592089 261.82293537 143.85344287 263.81925075 157.515625 266.8425293 C158.72379883 267.1082373 159.93197266 267.37394531 161.17675781 267.64770508 C164.66849068 268.42628603 168.15549556 269.22244857 171.640625 270.0300293 C173.00912598 270.34544678 173.00912598 270.34544678 174.40527344 270.66723633 C184.32625339 273.01159087 193.10609532 276.33150716 202.08984375 281.1628418 C209.3792598 285.04979929 215.32806953 287.21382045 223.640625 286.0300293 C226.279663 284.31902169 226.279663 284.31902169 228.640625 282.0300293 C231.88011807 280.46211465 235.266726 279.27643784 238.640625 278.0300293 C239.90279014 277.54942916 241.1644804 277.06758066 242.42578125 276.5847168 C243.78885143 276.06593271 245.15213309 275.54770395 246.515625 275.0300293 C247.13864502 274.79300293 247.76166504 274.55597656 248.40356445 274.31176758 C250.47658044 273.5338915 252.55794343 272.78163496 254.640625 272.0300293 C255.50171875 271.70542725 256.3628125 271.3808252 257.25 271.04638672 C264.96445962 268.27432946 272.67194654 266.78878868 280.75390625 265.64697266 C282.8493198 265.34841453 284.93989099 265.02555345 287.03125 264.69995117 C307.22498919 261.68232082 327.82378961 261.77492144 348.203125 261.7175293 C349.76415451 261.71160767 349.76415451 261.71160767 351.35671997 261.70556641 C370.08136508 261.67281078 388.38819538 263.12685015 406.95527649 265.41365051 C415.97421669 266.8256783 415.97421669 266.8256783 424.640625 265.0300293 C424.970625 177.5800293 425.300625 90.1300293 425.640625 0.0300293 C433.58376609 0.0300293 440.73719239 0.28986137 448.515625 1.2800293 C449.52109375 1.38959961 450.5265625 1.49916992 451.5625 1.61206055 C456.94391936 2.29009084 460.84353015 2.80397394 464.640625 7.0300293 C465.61913075 9.96554653 465.76951356 11.85621196 465.77763939 14.9142437 C465.7852512 16.43385525 465.7852512 16.43385525 465.79301679 17.98416603 C465.79351455 19.10039191 465.79401231 20.21661779 465.79452515 21.3666687 C465.7989074 22.54993433 465.80328965 23.73319996 465.8078047 24.95232213 C465.81887406 28.24235933 465.82541857 31.53234897 465.82998586 34.82239795 C465.83594179 38.36849603 465.84755145 41.91457658 465.85827637 45.46066284 C465.88279729 54.02605681 465.89742537 62.59145658 465.91033643 71.15687484 C465.91404805 73.57530151 465.91802129 75.99372762 465.9220891 78.41215372 C465.94732104 93.42518893 465.96937749 108.43822504 465.98181725 123.45127678 C465.984747 126.92853677 465.98770866 130.40579672 465.99072266 133.88305664 C465.99146871 134.74732687 465.99221476 135.61159709 465.99298342 136.50205733 C466.00564471 150.51151359 466.03887874 164.52084316 466.08052449 178.53024016 C466.12291425 192.90750792 466.14650869 207.28471074 466.15173781 221.66204083 C466.15515488 229.73686614 466.16694498 237.81149329 466.19984055 245.88625717 C466.2278014 252.7610007 466.23885786 259.63550547 466.22764508 266.51030146 C466.2224485 270.01889424 466.22540889 273.52698669 466.25011063 277.0355072 C466.27665228 280.83701724 466.26457692 284.63784038 466.24862671 288.43942261 C466.2625088 289.55118705 466.27639088 290.66295149 466.29069364 291.80840576 C466.21312475 299.27984518 466.21312475 299.27984518 463.22762489 303.19194221 C455.55749263 308.64164133 444.11036795 305.96726777 435.140625 305.1550293 C434.09874023 305.06552002 433.05685547 304.97601074 431.98339844 304.88378906 C427.19160219 304.46547504 422.40582264 304.01665531 417.625 303.48706055 C403.31544961 301.90218394 389.0328105 301.29438967 374.640625 301.0300293 C373.87888977 301.01564819 373.11715454 301.00126709 372.33233643 300.9864502 C340.51305683 300.41336254 308.8406838 301.08717586 277.640625 308.0300293 C276.77808105 308.21823242 275.91553711 308.40643555 275.02685547 308.6003418 C263.73649687 311.10606222 253.23463004 314.38640154 242.640625 319.0300293 C240.71695734 319.86832483 238.79255375 320.704826 236.86669922 321.53808594 C235.12859515 322.29343451 233.39611335 323.06168307 231.6640625 323.83081055 C221.25786668 327.95833266 207.26907236 327.62667959 197.0546875 323.22924805 C194.69725115 322.05815911 192.35415065 320.8633979 190.015625 319.6550293 C175.04136491 312.03941496 159.06547396 308.90504338 142.640625 306.0300293 C141.7650293 305.87405273 140.88943359 305.71807617 139.98730469 305.55737305 C103.87267885 299.24193631 67.32906517 300.34683151 30.890625 302.4050293 C29.76482025 302.46806244 28.6390155 302.53109558 27.47909546 302.59603882 C16.13017431 303.24367452 4.81245573 303.95909931 -6.4710083 305.36849976 C-25.74244569 307.75104099 -25.74244569 307.75104099 -31.24609375 304.1315918 C-34.31807802 301.07664256 -34.48549383 299.44789332 -34.4991827 295.23762798 C-34.50487394 294.21957787 -34.51056518 293.20152776 -34.51642889 292.15262765 C-34.51760876 291.02570703 -34.51878864 289.89878641 -34.52000427 288.73771667 C-34.52509209 287.54713836 -34.53017991 286.35656006 -34.53542191 285.12990361 C-34.54844662 281.81480602 -34.55691824 278.49975347 -34.5633949 275.18464029 C-34.56975924 272.34380757 -34.57983022 269.50299299 -34.58995556 266.66217156 C-34.62330185 257.30208702 -34.64480395 247.94199145 -34.66315541 238.58186695 C-34.66794901 236.1455322 -34.67293249 233.7091979 -34.67796063 231.27286363 C-34.70892792 216.15145474 -34.73562002 201.03004206 -34.75237942 185.90861034 C-34.75632907 182.40505657 -34.76033205 178.90150286 -34.7644043 175.39794922 C-34.76591684 174.09172378 -34.76591684 174.09172378 -34.76745994 172.75910995 C-34.78447413 158.64610079 -34.82559096 144.53326675 -34.87642729 130.42034312 C-34.92816223 115.93914725 -34.95731613 101.45804154 -34.9645763 86.97675401 C-34.96924355 78.84262944 -34.98404673 70.70879174 -35.0243206 62.57475853 C-35.05857126 55.64872969 -35.07258025 48.72303945 -35.05989646 41.79693075 C-35.05405786 38.26193267 -35.05801569 34.72765113 -35.0880661 31.19276047 C-35.12036107 27.36264892 -35.10632031 23.53351352 -35.08763123 19.70329285 C-35.10442615 18.58306439 -35.12122108 17.46283594 -35.13852495 16.30866116 C-35.04881387 8.98299989 -35.04881387 8.98299989 -33.05886281 6.23240817 C-30.19145354 3.7541243 -27.40687458 2.37496372 -23.671875 1.88549805 C-22.80691406 1.76625977 -21.94195312 1.64702148 -21.05078125 1.52416992 C-20.16261719 1.42297852 -19.27445313 1.32178711 -18.359375 1.2175293 C-17.50214844 1.09700195 -16.64492187 0.97647461 -15.76171875 0.85229492 C-10.48951276 0.17288693 -5.31577129 -0.02403823 0 0 Z " fill="#F9FAFC" transform="translate(111.359375,74.969970703125)"/>
<path d="M0 0 C0.76907181 -0.00418442 1.53814362 -0.00836884 2.33052063 -0.01268005 C4.86527793 -0.01902506 7.39894578 0.00007328 9.93359375 0.0234375 C11.2377121 0.02991806 11.2377121 0.02991806 12.56817627 0.03652954 C38.90570891 0.18945481 64.6889792 2.31517399 90.37109375 8.3984375 C91.45261719 8.65061035 92.53414063 8.9027832 93.6484375 9.16259766 C96.93475589 9.93480579 100.21644042 10.7234183 103.49609375 11.5234375 C104.98133545 11.88562378 104.98133545 11.88562378 106.49658203 12.25512695 C111.72048636 13.57715919 116.46148642 15.19063892 121.37109375 17.3984375 C123.91423157 18.18429983 126.46623522 18.87400249 129.0390625 19.5546875 C131.63767646 20.49488954 133.36043801 21.50150663 135.37109375 23.3984375 C135.80859375 26.9609375 135.80859375 26.9609375 135.37109375 30.3984375 C131.6968565 32.847929 128.6360191 33.0639376 124.37109375 32.3984375 C122.65072391 31.69160314 120.93158925 30.98008092 119.23583984 30.21606445 C116.23977909 28.90239497 113.15726019 27.87973327 110.05859375 26.8359375 C108.84558594 26.42214844 107.63257813 26.00835937 106.3828125 25.58203125 C102.6329422 24.40523038 98.84902939 23.63691508 94.99047852 22.90551758 C92.39805115 22.40365611 89.82885713 21.8344118 87.25390625 21.25 C58.89739806 15.07803932 29.32082007 12.97987428 0.33325195 12.81347656 C-1.41532104 12.79172363 -1.41532104 12.79172363 -3.19921875 12.76953125 C-4.20742676 12.76880615 -5.21563477 12.76808105 -6.25439453 12.76733398 C-7.0379834 12.64559814 -7.82157227 12.5238623 -8.62890625 12.3984375 C-10.94173212 8.92919869 -11.05369211 7.47638175 -10.62890625 3.3984375 C-8.12381879 -0.59586022 -4.24600454 -0.03448939 0 0 Z " fill="#BDC2D3" transform="translate(163.62890625,98.6015625)"/>
<path d="M0 0 C1.17369896 -0.00203934 1.17369896 -0.00203934 2.37110901 -0.00411987 C4.91705461 -0.00264171 7.46203222 0.0225805 10.0078125 0.05078125 C11.30684006 0.05868179 11.30684006 0.05868179 12.6321106 0.06674194 C24.73105113 0.14045176 36.71338035 0.46728067 48.72216797 2.05126953 C51.30523856 2.3855985 53.89119051 2.67108772 56.48046875 2.953125 C78.04785955 5.40528976 99.56187921 9.50142556 120.08618164 16.6550293 C123.11232492 17.70224887 126.15875481 18.68719521 129.20385742 19.67773438 C131.69912614 20.56454801 133.39893411 21.3278588 135.1328125 23.36328125 C135.59278629 26.51738724 135.81652042 28.43057357 133.890625 31.05786133 C130.94962329 33.24196357 128.34754412 32.35418391 124.87109375 31.88818359 C120.47823144 31.04611388 116.34917068 29.64675899 112.1328125 28.17578125 C89.19734793 20.60563005 66.07546581 16.826834 42.1328125 14.36328125 C40.69591064 14.20859375 40.69591064 14.20859375 39.22998047 14.05078125 C32.98672573 13.44648937 26.76740458 13.25586456 20.5 13.15234375 C19.64874542 13.1379274 18.79749084 13.12351105 17.92044067 13.10865784 C14.37604084 13.05123455 10.83181745 12.99626694 7.28710938 12.96191406 C4.67018103 12.934477 2.05410394 12.88870235 -0.5625 12.83984375 C-1.36761017 12.83659088 -2.17272034 12.83333801 -3.00222778 12.82998657 C-5.25048828 12.77978516 -5.25048828 12.77978516 -8.8671875 12.36328125 C-11.18001337 8.89404244 -11.29197336 7.4412255 -10.8671875 3.36328125 C-8.35184554 -0.71085576 -4.28892165 -0.05218403 0 0 Z " fill="#BEC3D3" transform="translate(163.8671875,201.63671875)"/>
<path d="M0 0 C0.80812134 -0.00939606 1.61624268 -0.01879211 2.44885254 -0.0284729 C3.76411926 -0.02730972 3.76411926 -0.02730972 5.10595703 -0.02612305 C6.48092346 -0.03438614 6.48092346 -0.03438614 7.88366699 -0.04281616 C10.87718821 -0.05456819 13.87024731 -0.04816388 16.86376953 -0.0378418 C17.87997375 -0.03668365 18.89617798 -0.03552551 19.94317627 -0.03433228 C41.90891876 0.01533061 63.52089218 1.3285007 84.98876953 6.2746582 C86.58041068 6.59638386 88.17294624 6.91370082 89.76611328 7.2277832 C102.42958815 9.74434183 114.89972833 12.67792132 127.11376953 16.8996582 C127.96052246 17.1886499 128.80727539 17.4776416 129.6796875 17.77539062 C130.4648877 18.05616455 131.25008789 18.33693848 132.05908203 18.6262207 C132.74760254 18.87194824 133.43612305 19.11767578 134.14550781 19.37084961 C136.2563803 20.40587609 137.51414923 21.44617411 138.98876953 23.2746582 C139.38242522 26.42390368 139.51731484 28.39374936 137.86376953 31.1496582 C134.97677586 32.8818544 133.35119322 32.70260304 129.98876953 32.2746582 C128.43308507 31.69647601 126.89232351 31.07741538 125.36376953 30.4309082 C108.28851744 23.45594148 90.09737622 20.29877608 71.98876953 17.2746582 C70.56540283 17.03271729 70.56540283 17.03271729 69.11328125 16.78588867 C66.53210782 16.35171198 63.94905177 15.93359301 61.36376953 15.5246582 C60.65663818 15.40904541 59.94950684 15.29343262 59.22094727 15.17431641 C47.88822025 13.47653442 36.34295866 13.24935177 24.90283203 13.0637207 C24.05828461 13.0493396 23.21373718 13.0349585 22.34359741 13.0201416 C18.87705409 12.9629122 15.4107046 12.90752845 11.94384766 12.87329102 C9.36727866 12.84584043 6.79157132 12.80010324 4.21533203 12.7512207 C3.43106842 12.74796783 2.64680481 12.74471497 1.83877563 12.74136353 C-3.48555779 12.61982027 -3.48555779 12.61982027 -6.00195312 10.9675293 C-7.72338677 8.08015124 -7.36590221 5.52581582 -7.01123047 2.2746582 C-3.98304429 0.25586742 -3.39479088 0.02217693 0 0 Z " fill="#BEC3D3" transform="translate(160.01123046875,150.725341796875)"/>
<path d="M0 0 C2.83044243 -0.00985444 5.66020107 -0.04103767 8.49047852 -0.07226562 C10.29451072 -0.07878375 12.09854803 -0.08403887 13.90258789 -0.08789062 C14.74628433 -0.10023743 15.58998077 -0.11258423 16.45924377 -0.12530518 C22.28795188 -0.10293312 22.28795188 -0.10293312 24.46360779 1.53985596 C26.57537482 4.34775095 26.11019883 6.86903517 25.74243164 10.24023438 C22.05352294 12.69950684 20.17388237 12.50628577 15.76977539 12.54882812 C14.31558652 12.57148138 12.86140377 12.59453014 11.40722656 12.61791992 C10.63800873 12.62705414 9.86879089 12.63618835 9.07626343 12.64559937 C-27.52618451 13.13644125 -63.32947666 16.66662507 -98.25756836 28.24023438 C-100.73349709 29.04284744 -103.21312826 29.83117321 -105.69506836 30.61523438 C-106.6631543 30.93234375 -107.63124023 31.24945313 -108.62866211 31.57617188 C-111.30917244 32.25326958 -113.50583987 32.44898619 -116.25756836 32.24023438 C-118.07006836 31.11523438 -118.07006836 31.11523438 -119.25756836 29.24023438 C-119.75756836 26.30273438 -119.75756836 26.30273438 -119.25756836 23.24023438 C-115.67779313 19.78090018 -111.85932111 18.01359483 -107.19506836 16.49023438 C-106.44322266 16.24418457 -105.69137695 15.99813477 -104.91674805 15.74462891 C-80.71272364 8.22425803 -55.42131293 3.86557413 -30.25756836 1.24023438 C-28.88967163 1.08772217 -28.88967163 1.08772217 -27.49414062 0.93212891 C-18.34913931 0.02578746 -9.18145432 0.01938549 0 0 Z " fill="#BDC3D3" transform="translate(476.257568359375,201.759765625)"/>
<path d="M0 0 C1.31047806 -0.00855011 1.31047806 -0.00855011 2.64743042 -0.01727295 C4.48808592 -0.02669164 6.32875805 -0.03324444 8.16943359 -0.03710938 C10.98955215 -0.04686588 13.80895694 -0.07793853 16.62890625 -0.109375 C18.41926652 -0.11590076 20.20963197 -0.1211529 22 -0.125 C22.84378204 -0.1373468 23.68756409 -0.1496936 24.55691528 -0.16241455 C30.42446526 -0.13996728 30.42446526 -0.13996728 32.58956909 1.53790283 C34.5591417 4.10500421 34.25851723 6.07248712 33.8671875 9.203125 C32.83422852 10.86743164 32.83422852 10.86743164 30.8671875 12.203125 C28.17762154 12.48881457 25.70910866 12.59685098 23.01953125 12.57421875 C21.38101789 12.58863654 19.74250884 12.60355094 18.10400391 12.61889648 C17.23978821 12.62186737 16.37557251 12.62483826 15.48516846 12.62789917 C0.88652218 12.69720759 -13.51761188 13.33894686 -28.0078125 15.140625 C-28.70770294 15.22625702 -29.40759338 15.31188904 -30.12869263 15.40011597 C-37.86922418 16.3602538 -45.50964982 17.55602257 -53.1328125 19.203125 C-54.15246094 19.40292969 -55.17210937 19.60273437 -56.22265625 19.80859375 C-64.54349218 21.50928587 -72.77560433 23.55763105 -81.0078125 25.640625 C-82.17304443 25.92897217 -83.33827637 26.21731934 -84.53881836 26.5144043 C-90.89966175 28.14699488 -96.34582603 30.11940211 -102.1328125 33.203125 C-105.40531628 33.63534248 -107.14027251 33.76556433 -110.0078125 32.140625 C-111.82234525 29.01559637 -111.62775212 26.72956982 -111.1328125 23.203125 C-107.01043044 18.85497353 -102.03990482 17.68381738 -96.4453125 16.140625 C-95.17397461 15.77614258 -95.17397461 15.77614258 -93.87695312 15.40429688 C-92.15905804 14.91179007 -90.43963101 14.42459693 -88.71875 13.94262695 C-86.14183267 13.2057045 -83.58617257 12.4143573 -81.02734375 11.6171875 C-76.55717697 10.26881938 -72.11532384 9.36699572 -67.5078125 8.640625 C-63.31949608 7.96446691 -59.19289221 7.25403654 -55.0859375 6.1796875 C-51.25476428 5.18779647 -47.43828784 4.62481399 -43.5078125 4.140625 C-38.32820795 3.49848975 -38.32820795 3.49848975 -33.17578125 2.67578125 C-28.7913343 1.99475676 -24.39229258 1.8195474 -19.96679688 1.59765625 C-15.9365366 1.38256499 -15.9365366 1.38256499 -11.9675293 0.69824219 C-7.97543697 0.00097552 -4.04565503 0.02047499 0 0 Z " fill="#BCC2D2" transform="translate(468.1328125,98.796875)"/>
<path d="M0 0 C0.88113464 -0.00953705 1.76226929 -0.0190741 2.67010498 -0.02890015 C5.19179775 -0.05257649 7.71259236 -0.05507048 10.234375 -0.05078125 C10.99898041 -0.05989532 11.76358582 -0.0690094 12.55136108 -0.07839966 C17.73766527 -0.03342082 17.73766527 -0.03342082 20.22753906 1.64770508 C21.84148143 4.27556397 21.62533214 6.30984288 21.25 9.3125 C20.19848633 10.97460938 20.19848633 10.97460938 18.25 12.3125 C15.65711984 12.6100591 13.29321533 12.73009863 10.69921875 12.71875 C9.13183528 12.73871826 7.5644525 12.75874009 5.99707031 12.77880859 C5.17194946 12.78386414 4.34682861 12.78891968 3.4967041 12.79412842 C-20.38193494 12.96554436 -44.31529111 14.48006557 -67.75 19.3125 C-68.71824707 19.51214355 -69.68649414 19.71178711 -70.68408203 19.91748047 C-83.41163922 22.59604477 -95.84727714 25.66544937 -108.07739258 30.12792969 C-112.44501738 31.69618121 -116.02995666 32.80628915 -120.75 32.3125 C-122.625 31.1875 -122.625 31.1875 -123.75 29.3125 C-124.25 26.375 -124.25 26.375 -123.75 23.3125 C-120.07542285 19.69349302 -116.1758553 18.19264137 -111.3125 16.8125 C-110.60222656 16.60238281 -109.89195312 16.39226562 -109.16015625 16.17578125 C-107.70732369 15.74771451 -106.25305359 15.32449548 -104.79736328 14.90625 C-103.00311849 14.38590617 -101.21751129 13.83596641 -99.43359375 13.28125 C-81.33492344 7.77392456 -62.50936314 4.54567339 -43.75 2.3125 C-42.50355713 2.15587891 -42.50355713 2.15587891 -41.23193359 1.99609375 C-27.5153195 0.32481939 -13.80053529 0.08205825 0 0 Z " fill="#BFC4D4" transform="translate(480.75,253.6875)"/>
<path d="M0 0 C3.29298637 0.01088591 6.58544634 -0.00004314 9.87841797 -0.01269531 C11.97867959 -0.01137637 14.07894088 -0.00881949 16.17919922 -0.00488281 C17.65089066 -0.01095551 17.65089066 -0.01095551 19.15231323 -0.01715088 C20.05821198 -0.01084656 20.96411072 -0.00454224 21.89746094 0.00195312 C22.69223846 0.00354431 23.48701599 0.0051355 24.30587769 0.0067749 C26.37451172 0.26074219 26.37451172 0.26074219 29.37451172 2.26074219 C29.78419733 5.4016652 29.70382906 7.51118543 28.42480469 10.42236328 C25.10331826 13.40054771 21.50498734 12.82448655 17.19482422 12.79980469 C16.27224823 12.8115976 15.34967224 12.8233905 14.3991394 12.83554077 C11.43242938 12.87086951 8.46641458 12.87995405 5.49951172 12.88574219 C1.64777497 12.90774102 -2.20364434 12.94189857 -6.05517578 12.98730469 C-7.00632263 12.99836243 -7.95746948 13.00942017 -8.93743896 13.02081299 C-25.20176776 12.58704417 -25.20176776 12.58704417 -40.62548828 16.26074219 C-42.01691562 16.50096659 -43.41575209 16.69915873 -44.81689453 16.87402344 C-45.6707373 16.98544678 -46.52458008 17.09687012 -47.40429688 17.21166992 C-48.78222412 17.39064819 -48.78222412 17.39064819 -50.18798828 17.57324219 C-59.84986473 18.89286889 -69.19212166 20.82151983 -78.62548828 23.26074219 C-79.92353028 23.58420144 -81.22170586 23.90712513 -82.52001953 24.22949219 C-90.08538615 26.16173825 -97.33026125 28.4938245 -104.60205078 31.30761719 C-107.51938365 32.22729318 -109.59762531 32.59717141 -112.62548828 32.26074219 C-114.8731937 30.16805094 -115.53445907 28.78090909 -116.06298828 25.76074219 C-115.46255143 22.32967444 -114.32919995 21.45936487 -111.62548828 19.26074219 C-108.85697614 18.14516029 -106.22571195 17.22307443 -103.37548828 16.38574219 C-102.54122314 16.13381104 -101.70695801 15.88187988 -100.84741211 15.62231445 C-98.11295792 14.81155645 -95.37166546 14.03081903 -92.62548828 13.26074219 C-91.71653809 13.00502441 -90.80758789 12.74930664 -89.87109375 12.48583984 C-73.01467884 7.82997669 -55.92415969 4.7462095 -38.62548828 2.26074219 C-37.36575195 2.07092773 -36.10601562 1.88111328 -34.80810547 1.68554688 C-23.22195344 0.05303073 -11.68563946 -0.0461392 0 0 Z " fill="#BEC3D3" transform="translate(472.62548828125,150.7392578125)"/>
<path d="M0 0 C0.88413574 -0.0009668 1.76827148 -0.00193359 2.67919922 -0.00292969 C3.65131348 0.01479492 4.62342773 0.03251953 5.625 0.05078125 C6.66027832 0.06206055 7.69555664 0.07333984 8.76220703 0.08496094 C33.22991116 0.48903428 57.5511879 1.7679742 81.625 6.36328125 C83.3251123 6.68039062 83.3251123 6.68039062 85.05957031 7.00390625 C128.7058193 15.28309547 128.7058193 15.28309547 137.625 23.36328125 C138.08447423 26.51396165 138.14725401 28.44165653 136.5625 31.23828125 C133.0096947 33.30120046 129.17071993 32.76445545 125.32788086 31.76708984 C122.74153079 30.92942854 120.18333645 30.03289445 117.625 29.11328125 C115.73800837 28.46315087 113.84998002 27.81602192 111.9609375 27.171875 C111.0440918 26.85847168 110.12724609 26.54506836 109.18261719 26.22216797 C76.76275791 15.33508655 40.56700432 12.90202322 6.57202148 12.77856445 C5.40364746 12.76700821 5.40364746 12.76700821 4.21166992 12.75521851 C2.75429438 12.74169863 1.29673429 12.74040878 -0.16064453 12.75357056 C-3.00903087 12.72243021 -4.92590235 12.67386313 -7.30639648 11.02758789 C-9.00733571 8.37844402 -8.82077458 6.42002119 -8.375 3.36328125 C-5.63527819 0.76275744 -3.74342563 -0.01477248 0 0 Z " fill="#BEC3D3" transform="translate(161.375,253.63671875)"/>
<path d="M0 0 C1.98 0 3.96 0 6 0 C6.33 0.66 6.66 1.32 7 2 C6.34 2 5.68 2 5 2 C4.22324506 9.31869332 3.85840205 16.52996255 3.88647461 23.88745117 C3.88632858 24.91318237 3.88618256 25.93891357 3.8860321 26.99572754 C3.88672196 30.34483039 3.89447041 33.69387577 3.90234375 37.04296875 C3.90421123 39.38137278 3.90563357 41.7197772 3.90663147 44.05818176 C3.91043066 50.18190613 3.9202385 56.30560638 3.93133545 62.42932129 C3.94160569 68.69050775 3.94614107 74.95169815 3.95117188 81.21289062 C3.96186333 93.47527095 3.97890821 105.73763346 4 118 C3.01 118.495 3.01 118.495 2 119 C1.84602371 109.69881196 1.69784368 100.39755482 1.5570364 91.09615803 C1.49147051 86.77702597 1.42391812 82.45794414 1.35180664 78.13891602 C1.28227217 73.96983727 1.21798099 69.80070745 1.15730476 65.63149071 C1.13325283 64.04188292 1.10732052 62.45230243 1.07946587 60.86275673 C1.04073676 58.63421517 1.00873011 56.4056698 0.97827148 54.17700195 C0.95828598 52.90903275 0.93830048 51.64106354 0.91770935 50.33467102 C0.99040292 47.38890344 1.36477571 44.86196471 2 42 C2.10484881 39.27375465 2.16388476 36.57378625 2.16796875 33.84765625 C2.17129715 33.06990341 2.17462555 32.29215057 2.17805481 31.49082947 C2.18310174 29.85107003 2.18546383 28.2113004 2.18530273 26.5715332 C2.18748975 24.07420827 2.20567034 21.57732507 2.22460938 19.08007812 C2.22754374 17.48177233 2.22952825 15.88346446 2.23046875 14.28515625 C2.23765427 13.54435318 2.24483978 12.80355011 2.25224304 12.04029846 C2.23304164 7.64562858 1.62188875 4.08465268 0 0 Z " fill="#F9FAFC" transform="translate(542,75)"/>
<path d="M0 0 C1.65 0 3.3 0 5 0 C8.02161606 4.71372106 8.17282075 7.80745253 7.421875 13.14453125 C7 15 7 15 6 16 C5.75520869 19.03722557 5.61591635 22.07340606 5.4765625 25.1171875 C5 28 5 28 3.50219727 29.25170898 C1.19086191 31.94169313 1.56190957 34.36548627 1.48828125 37.85546875 C1.47033005 38.51710526 1.45237885 39.17874176 1.43388367 39.86042786 C1.37979102 41.96938747 1.34589069 44.07812099 1.3125 46.1875 C1.27932573 47.61917208 1.24483595 49.05081433 1.20898438 50.48242188 C1.12406743 53.9880639 1.05725079 57.49378473 1 61 C0.67 61 0.34 61 0 61 C0 40.87 0 20.74 0 0 Z " fill="#F9FAFC" transform="translate(537,75)"/>
<path d="M0 0 C39.73463473 -0.18996405 39.73463473 -0.18996405 56.875 0.4375 C57.95749023 0.47673584 59.03998047 0.51597168 60.15527344 0.55639648 C66.79338108 0.8299218 73.38984228 1.33572398 80 2 C80 2.33 80 2.66 80 3 C71.34116785 3.04659831 62.6823797 3.08200759 54.02344894 3.10362434 C50.00158977 3.11400585 45.97981718 3.12806042 41.95800781 3.15087891 C38.06763117 3.17281039 34.17733714 3.18461084 30.28690338 3.18975449 C28.81195019 3.19341418 27.33700088 3.20055912 25.86208344 3.21146011 C17.05648637 3.27387868 8.64560764 2.80657736 0 1 C0 0.67 0 0.34 0 0 Z " fill="#BCCEE9" transform="translate(445,375)"/>
<path d="M0 0 C5.1371222 -0.02508172 10.27420726 -0.04303674 15.41137695 -0.05493164 C17.15194318 -0.05990057 18.89250537 -0.06667801 20.63305664 -0.07543945 C31.47292756 -0.12856076 42.19396864 0.09310722 53 1 C53 1.33 53 1.66 53 2 C42.1078014 2.62368417 31.22375426 3.11221103 20.3125 3.1875 C19.42997559 3.20039063 18.54745117 3.21328125 17.63818359 3.2265625 C11.5481201 3.23575678 5.92323263 2.39859607 0 1 C0 0.67 0 0.34 0 0 Z " fill="#C3D3EA" transform="translate(170,375)"/>
<path d="M0 0 C0.33 0 0.66 0 1 0 C1 3.3 1 6.6 1 10 C1.66 10 2.32 10 3 10 C2.84660156 11.03125 2.69320312 12.0625 2.53515625 13.125 C1.75186577 19.39132386 1.64061013 25.69359689 1.4375 32 C1.39431641 33.25167969 1.35113281 34.50335938 1.30664062 35.79296875 C1.20121983 38.86188523 1.09909658 41.93087389 1 45 C0.67 45 0.34 45 0 45 C0 30.15 0 15.3 0 0 Z " fill="#F9FAFC" transform="translate(537,138)"/>
<path d="M0 0 C2.61404569 0.44812212 4.89282326 0.95288539 7.328125 2.0234375 C10.24670145 3.09016866 12.46576547 3.26722801 15.5625 3.25 C16.95662109 3.25773437 16.95662109 3.25773437 18.37890625 3.265625 C21.0554462 2.99438101 22.70438282 2.36116595 25 1 C25 1.66 25 2.32 25 3 C19.68019756 6.1140307 15.70142887 6.90836401 9.66015625 5.42578125 C5.62542002 4.18985719 2.84711501 3.21651918 0 0 Z " fill="#F9FAFC" transform="translate(314,358)"/>
<path d="M0 0 C1.98 0 3.96 0 6 0 C6.33 0.66 6.66 1.32 7 2 C6.34 2 5.68 2 5 2 C4.67 5.63 4.34 9.26 4 13 C3.67 13 3.34 13 3 13 C2.87625 11.96875 2.7525 10.9375 2.625 9.875 C2.06110186 6.37883154 1.21317941 3.31602373 0 0 Z " fill="#F9FAFC" transform="translate(542,75)"/>
</svg>
