<?xml version="1.0" encoding="UTF-8"?>
<svg version="1.1" xmlns="http://www.w3.org/2000/svg" width="709" height="518">
<path d="M0 0 C233.97 0 467.94 0 709 0 C709 170.94 709 341.88 709 518 C475.03 518 241.06 518 0 518 C0 347.06 0 176.12 0 0 Z " fill="#FAFBFD" transform="translate(0,0)"/>
<path d="M0 0 C1.96289635 -0.00107537 3.92579239 -0.00301783 5.88868713 -0.00575256 C11.17318915 -0.01056045 16.45760548 -0.00299837 21.74209714 0.00720048 C27.28858914 0.01603962 32.83507893 0.01422246 38.38157654 0.01383972 C47.6824587 0.01477318 56.98330802 0.02341764 66.28417969 0.03710938 C77.03221412 0.05287311 87.78021275 0.05810586 98.52825791 0.05737382 C109.99380323 0.05669845 121.4593348 0.06363419 132.92487597 0.07282043 C136.22254218 0.07494999 139.52020617 0.07566134 142.817873 0.07605934 C147.99473695 0.077064 153.17157087 0.08317072 158.34842491 0.09322548 C160.24712058 0.09614448 162.1458197 0.09737706 164.04451752 0.09679794 C166.63624198 0.09630657 169.22788257 0.10196938 171.81959534 0.10920715 C172.57007615 0.10765855 173.32055697 0.10610995 174.09377962 0.10451442 C178.1841237 0.12337282 182.01415389 0.50688289 186.03295898 1.24291992 C188.17919009 1.23754763 190.32555981 1.19371141 192.47045898 1.11791992 C223.22319638 0.98884233 250.20161955 18.30831094 271.65795898 38.74291992 C272.44170898 39.56791992 273.22545898 40.39291992 274.03295898 41.24291992 C274.62463867 41.85135742 275.21631836 42.45979492 275.82592773 43.08666992 C287.78237768 55.85255071 300.52283163 76.08193505 301.13061523 94.14526367 C301.08227539 95.18360352 301.08227539 95.18360352 301.03295898 96.24291992 C302.19311523 96.21198242 303.35327148 96.18104492 304.54858398 96.14916992 C328.06772524 96.1904678 354.72839257 110.07394428 372.03295898 125.24291992 C372.69166992 125.79334961 373.35038086 126.3437793 374.02905273 126.91088867 C386.95708047 137.86199466 396.67064495 149.75496532 404.78295898 164.61791992 C405.13567871 165.2522998 405.48839844 165.88667969 405.85180664 166.5402832 C407.00982848 168.73949221 408.0232831 170.97126135 409.03295898 173.24291992 C409.66751007 174.64975288 409.66751007 174.64975288 410.31488037 176.08500671 C415.16951329 188.46199937 414.72383271 200.72828775 414.62670898 213.86401367 C414.62499401 216.33773236 414.62506748 218.81145286 414.62683105 221.28517151 C414.62518542 226.44843132 414.6066278 231.611253 414.57495117 236.77441406 C414.53529816 243.351731 414.53090881 249.92847513 414.538414 256.50588894 C414.54150198 261.60810985 414.5292981 266.71020501 414.51228333 271.8123951 C414.50531341 274.23578158 414.50212139 276.6591823 414.50297546 279.08257866 C414.48596194 310.8438097 407.62101672 337.52312504 387.03295898 362.24291992 C386.47737305 362.93901367 385.92178711 363.63510742 385.34936523 364.35229492 C381.68279498 368.84359507 377.51193115 372.57562311 373.03295898 376.24291992 C371.62723633 377.40500977 371.62723633 377.40500977 370.19311523 378.59057617 C345.8636518 398.24291992 345.8636518 398.24291992 334.03295898 398.24291992 C333.82541992 397.71182617 333.61788086 397.18073242 333.40405273 396.63354492 C333.0959668 395.92713867 332.78788086 395.22073242 332.47045898 394.49291992 C332.18041992 393.79682617 331.89038086 393.10073242 331.59155273 392.38354492 C329.26738227 389.19145115 326.70484666 387.51252442 323.03295898 386.24291992 C318.72119685 385.63991672 314.44480613 385.54731767 310.09545898 385.49291992 C308.35425781 385.44844727 308.35425781 385.44844727 306.57788086 385.40307617 C303.72994132 385.33275668 300.88144785 385.28553008 298.03295898 385.24291992 C298.03295898 377.98291992 298.03295898 370.72291992 298.03295898 363.24291992 C300.34295898 362.58291992 302.65295898 361.92291992 305.03295898 361.24291992 C327.76975721 354.33211847 348.11048827 345.26215766 360.04077148 323.39575195 C368.5417494 306.85817041 371.39795406 291.33815943 371.34863281 272.85913086 C371.3454377 270.35121516 371.36914101 267.84444364 371.39428711 265.33666992 C371.3965575 263.72469222 371.39726481 262.11271139 371.39624023 260.50073242 C371.41005486 259.38965622 371.41005486 259.38965622 371.42414856 258.25613403 C371.38202283 253.51128525 370.51769297 250.28286088 368.03295898 246.24291992 C364.31933706 243.02500771 360.19997265 241.91064102 355.34545898 242.24291992 C351.30762794 242.94605947 348.81691359 244.12151627 346.03295898 247.24291992 C344.06600709 251.92638602 343.73928742 256.26960359 343.72436523 261.28198242 C343.69918469 262.84839206 343.673787 264.41479823 343.64819336 265.98120117 C343.61964049 268.41624875 343.59558867 270.85123545 343.57666016 273.28637695 C343.4073654 291.55904812 340.65981676 305.54829148 327.53295898 319.24291992 C323.66609648 322.86479285 319.72645271 325.79136689 315.03295898 328.24291992 C314.3587793 328.59999023 313.68459961 328.95706055 312.98999023 329.32495117 C296.67201601 337.26101514 275.14926833 337.83475625 257.95874023 332.24291992 C243.00767069 326.42329746 230.77630834 317.35150997 223.80639648 302.65698242 C220.74815816 295.33041148 219.89739168 288.61197635 219.82202148 280.73901367 C219.79397132 279.09512319 219.76530701 277.4512431 219.73608398 275.80737305 C219.69476214 273.23779392 219.65783636 270.66841284 219.6315918 268.09863281 C219.60395394 265.60336356 219.55811203 263.10895123 219.50952148 260.61401367 C219.50464218 259.46696205 219.50464218 259.46696205 219.49966431 258.29673767 C219.3956698 253.77057451 218.81071555 250.85050942 216.03295898 247.24291992 C211.96502267 243.49327333 211.96502267 243.49327333 206.82592773 242.18823242 C202.28107298 242.50167068 199.72145051 242.7122077 196.03295898 245.55541992 C192.38355728 250.45930347 191.71551608 254.00992656 191.69702148 260.09448242 C191.69036469 260.86738617 191.68370789 261.64028992 191.67684937 262.43661499 C191.666727 264.07905713 191.66203222 265.72154037 191.66235352 267.36401367 C191.65805822 269.81137922 191.62195968 272.2568205 191.58374023 274.70385742 C191.41866581 298.03924469 197.92761969 321.49159047 214.59545898 338.55541992 C229.69335071 353.25632115 247.5903271 359.27795805 268.03295898 362.24291992 C268.03295898 369.83291992 268.03295898 377.42291992 268.03295898 385.24291992 C266.34686523 385.28030273 264.66077148 385.31768555 262.92358398 385.35620117 C260.71001995 385.42185773 258.49647928 385.48830518 256.28295898 385.55541992 C255.17178711 385.57797852 254.06061523 385.60053711 252.91577148 385.6237793 C251.31088867 385.67695312 251.31088867 385.67695312 249.67358398 385.73120117 C248.19680176 385.77047729 248.19680176 385.77047729 246.69018555 385.81054688 C243.67181598 386.30168364 242.35337487 387.32106583 240.03295898 389.24291992 C239.37295898 389.24291992 238.71295898 389.24291992 238.03295898 389.24291992 C235.68899544 392.90536296 235.507829 395.96686146 236.03295898 400.24291992 C238.77630202 403.90798889 240.26164951 405.11659737 244.82751465 405.86437988 C246.32615186 405.8878784 247.82537608 405.88400185 249.32397461 405.8581543 C250.14572678 405.86370331 250.96747894 405.86925232 251.81413269 405.87496948 C254.52308976 405.88675408 257.2303696 405.86250368 259.93920898 405.83666992 C261.82580489 405.83495842 263.71240317 405.8350249 265.59899902 405.83679199 C269.5500366 405.83513943 273.50050634 405.81645309 277.45141602 405.78491211 C282.51231371 405.74523475 287.5724678 405.74086727 292.63349152 405.74837494 C296.5283284 405.75144655 300.42299855 405.73931729 304.3177948 405.72224426 C306.18367975 405.71522002 308.04958359 405.71208903 309.91548157 405.7129364 C312.52464862 405.71113581 315.13292978 405.68973209 317.74194336 405.6628418 C318.51092453 405.6657724 319.2799057 405.668703 320.07218933 405.67172241 C325.80010259 405.58077946 329.02000454 404.25587436 333.03295898 400.24291992 C340.14241649 399.3353296 347.23495355 401.56539885 353.07202148 405.68041992 C356.47914639 409.03910229 357.4404341 411.92123912 357.65795898 416.68041992 C357.32190064 421.90004956 356.39358926 426.14743182 353.03295898 430.24291992 C345.27286785 436.85445867 337.9045417 438.543081 327.94775391 438.53344727 C326.94696304 438.54016449 325.94617218 438.54688171 324.91505432 438.55380249 C321.61446128 438.57276288 318.31407181 438.57670576 315.01342773 438.57885742 C312.71185727 438.58528682 310.41028763 438.59201529 308.10871887 438.59902954 C303.28616441 438.6109975 298.46368155 438.61471086 293.64111328 438.61352539 C287.47422439 438.61332226 281.30779663 438.64062084 275.14101696 438.67506981 C270.38737394 438.6973531 265.63384164 438.70136248 260.88015175 438.70030594 C258.60725631 438.70265987 256.33435772 438.71147159 254.0615139 438.72697067 C250.87613394 438.74665839 247.69174501 438.74078104 244.50634766 438.72875977 C243.5756546 438.73999878 242.64496155 438.75123779 241.68606567 438.76281738 C232.67067802 438.67675434 225.41265867 435.62261961 219.03295898 429.24291992 C215.27406386 423.66233803 215.68269148 418.33688471 215.84545898 411.86791992 C215.85899414 410.84569336 215.8725293 409.8234668 215.88647461 408.77026367 C215.92165682 406.26059943 215.97088359 403.75203902 216.03295898 401.24291992 C215.4724585 401.1347998 214.91195801 401.02667969 214.33447266 400.9152832 C209.04057556 399.82721389 204.26467614 398.3424902 199.34545898 396.11791992 C198.32125854 395.6594165 198.32125854 395.6594165 197.27636719 395.19165039 C185.74451889 389.92261618 175.62178906 383.60829481 166.03295898 375.24291992 C165.3381543 374.69249023 164.64334961 374.14206055 163.92749023 373.57495117 C145.66636581 358.81296436 133.04513556 332.71524792 130.24092102 309.86312866 C129.77594201 304.00464565 129.93307263 298.11545331 129.97045898 292.24291992 C129.97548411 290.88224449 129.98004523 289.52156725 129.98413086 288.16088867 C129.99585439 284.85485267 130.01226471 281.54890991 130.03295898 278.24291992 C122.09448974 278.09421416 114.15913985 278.01277955 106.21941376 278.01232529 C102.5305453 278.01010446 98.84463651 277.98652016 95.15649414 277.91040039 C73.87704639 277.04453371 73.87704639 277.04453371 55.61584473 286.65325928 C54.56568542 287.68147247 53.53022367 288.72499115 52.51268005 289.78549194 C50.16280336 292.09996601 47.53089585 293.79957058 44.78295898 295.61791992 C43.74010742 296.33206055 42.69725586 297.04620117 41.62280273 297.78198242 C41.06061035 298.16644531 40.49841797 298.5509082 39.91918945 298.94702148 C25.70845992 308.71023043 11.70408961 318.75778737 -2.24047852 328.89575195 C-10.42614424 334.84467753 -18.63107152 340.75566666 -26.96704102 346.49291992 C-27.64395996 346.95907715 -28.32087891 347.42523438 -29.01831055 347.90551758 C-34.09080156 351.37603111 -36.68726837 352.88154087 -42.96704102 352.24291992 C-47.16607878 349.07031361 -48.58648475 346.2214597 -49.96704102 341.24291992 C-50.24517799 338.98062437 -50.43343792 336.70640371 -50.55688477 334.43041992 C-50.61210548 333.41540405 -50.61210548 333.41540405 -50.66844177 332.37988281 C-51.2028852 321.6771536 -51.33448538 310.95585308 -51.52954102 300.24291992 C-51.5728471 298.0033305 -51.6164647 295.76374708 -51.66040039 293.52416992 C-51.76619979 288.09715043 -51.868175 282.67006993 -51.96704102 277.24291992 C-53.87646484 276.76894775 -53.87646484 276.76894775 -55.82446289 276.28540039 C-57.52834559 275.85238888 -59.23211569 275.41893414 -60.93579102 274.98510742 C-62.18827637 274.67609497 -62.18827637 274.67609497 -63.46606445 274.36083984 C-71.95935324 272.17979627 -79.37990011 268.56895883 -86.96704102 264.24291992 C-87.96219727 263.68733398 -88.95735352 263.13174805 -89.98266602 262.55932617 C-108.45911121 251.55264382 -121.07049632 234.76432778 -126.71704102 214.05541992 C-126.91579834 213.33870117 -127.11455566 212.62198242 -127.31933594 211.88354492 C-131.02153887 197.28420202 -131.29062623 182.25706886 -131.30297852 167.28979492 C-131.30943268 165.41383776 -131.31616279 163.53788152 -131.32315063 161.66192627 C-131.33502443 157.755795 -131.33884168 153.84975151 -131.33764648 149.94360352 C-131.33744361 145.00118008 -131.36475914 140.05933355 -131.3991909 135.11704636 C-131.42170304 131.24907983 -131.42547672 127.38124699 -131.42442703 123.51322174 C-131.42674614 121.69402324 -131.43535366 119.87481885 -131.45109177 118.05568695 C-131.70140054 86.14671518 -123.01801101 59.00062986 -100.71704102 35.68041992 C-85.82344856 21.29863477 -67.07377774 10.44293804 -46.96704102 5.24291992 C-46.11883789 5.00702148 -45.27063477 4.77112305 -44.39672852 4.52807617 C-29.58977461 0.55981253 -15.22309617 -0.04892425 0 0 Z " fill="#2F71DF" transform="translate(207.967041015625,39.757080078125)"/>
<path d="M0 0 C9.47396645 7.49433167 15.55395646 19.05463044 17 31 C17.44542926 39.66053185 17.25408618 48.33566134 17 57 C15.74340576 57.01458252 14.48681152 57.02916504 13.19213867 57.04418945 C8.53462108 57.10211604 3.87758984 57.17934911 -0.77954102 57.26245117 C-2.79606235 57.2957271 -4.81267742 57.32375068 -6.8293457 57.34643555 C-9.726481 57.37993256 -12.62275518 57.43224544 -15.51953125 57.48828125 C-16.42274612 57.49467117 -17.325961 57.5010611 -18.25654602 57.50764465 C-19.09719101 57.52743881 -19.937836 57.54723297 -20.80395508 57.56762695 C-21.91315056 57.58428154 -21.91315056 57.58428154 -23.04475403 57.60127258 C-25.55888463 58.11397166 -26.45939366 58.97640827 -28 61 C-28.40170519 64.14669064 -28.33154462 66.23309112 -27.0690918 69.15332031 C-23.68313654 72.17531035 -19.90551883 71.60340877 -15.51953125 71.609375 C-14.59154221 71.62591125 -13.66355316 71.64244751 -12.70744324 71.65948486 C-9.74239565 71.70808427 -6.77786134 71.72936222 -3.8125 71.75 C-1.80270838 71.7781497 0.2070592 71.80807571 2.21679688 71.83984375 C7.14477008 71.91719318 12.07110574 71.95760091 17 72 C17 79.92 17 87.84 17 96 C14.00292969 96.03738281 11.00585938 96.07476562 7.91796875 96.11328125 C5.0187241 96.15947833 2.11960951 96.21071859 -0.77954102 96.26245117 C-2.79606235 96.2957271 -4.81267742 96.32375068 -6.8293457 96.34643555 C-9.726481 96.37993256 -12.62275518 96.43224544 -15.51953125 96.48828125 C-16.42274612 96.49467117 -17.325961 96.5010611 -18.25654602 96.50764465 C-19.09719101 96.52743881 -19.937836 96.54723297 -20.80395508 96.56762695 C-21.91315056 96.58428154 -21.91315056 96.58428154 -23.04475403 96.60127258 C-25.55890221 97.11397524 -26.45652529 97.97890057 -28 100 C-28.51249919 103.44106602 -28.51202278 105.2356058 -26.55761719 108.15332031 C-22.7353609 110.91310903 -19.24862888 110.60291335 -14.640625 110.609375 C-13.28405792 110.63417938 -13.28405792 110.63417938 -11.90008545 110.65948486 C-9.01665479 110.70799979 -6.13375166 110.72934344 -3.25 110.75 C-1.29294216 110.77815678 0.66409107 110.80808379 2.62109375 110.83984375 C7.41401908 110.91375969 12.20665096 110.96331298 17 111 C17.06260033 114.15225245 17.09976806 117.30434139 17.1328125 120.45703125 C17.15952026 121.778703 17.15952026 121.778703 17.18676758 123.1270752 C17.28120539 135.18456186 13.82283332 146.63984372 6 156 C5.52304687 156.60972656 5.04609375 157.21945312 4.5546875 157.84765625 C-3.79101338 167.3885957 -17.78516708 172.14301099 -30.09521484 173.17578125 C-46.85002646 174.20345863 -62.02604133 170.42437606 -75.3125 159.75 C-83.60575609 152.06854149 -88.17593957 141.41139787 -89.16870117 130.32348633 C-89.24833949 129.49787358 -89.32797781 128.67226084 -89.41002941 127.82162952 C-90.23966526 118.49508397 -90.30910937 109.18105639 -90.30078125 99.82421875 C-90.30468473 97.95677091 -90.30902267 96.08932394 -90.31376648 94.22187805 C-90.3211494 90.34539889 -90.32099361 86.46901097 -90.31567383 82.5925293 C-90.30985531 77.66301838 -90.32690639 72.73388028 -90.3500185 67.80443096 C-90.36484447 63.96163306 -90.36561614 60.11892351 -90.36250877 56.27610207 C-90.3630164 54.45950386 -90.36814705 52.64289997 -90.37832069 50.82633018 C-90.4615645 33.90787456 -89.28394686 17.89205909 -77.8125 4.43359375 C-56.65618207 -16.13118239 -23.53070161 -16.33307523 0 0 Z " fill="#F8F9FC" transform="translate(525,182)"/>
<path d="M0 0 C2.70256885 2.41039925 3.84616525 3.53849574 5 7 C5.13022621 9.70837538 5.20929979 12.39572598 5.24609375 15.10546875 C5.27905165 16.74544765 5.31226295 18.38542148 5.34570312 20.02539062 C5.39293797 22.60128052 5.43734148 25.17715278 5.47680664 27.75317383 C5.51685217 30.245828 5.5683331 32.73805561 5.62109375 35.23046875 C5.6295079 35.98909714 5.63792206 36.74772552 5.64659119 37.52934265 C5.96931683 51.69499679 12.29387757 64.7724749 22.4375 74.625 C38.38952822 87.7932429 58.06980866 90.11698088 78 89 C92.26044929 87.32681488 105.34203025 80.6202029 115 70 C117.23547321 67.11614278 119.15260685 64.14289212 121 61 C121.38929688 60.41605469 121.77859375 59.83210938 122.1796875 59.23046875 C128.84339054 48.84579284 127.36561674 35.19186513 127.45629883 23.35961914 C127.47804815 20.9750807 127.51745236 18.59130278 127.55859375 16.20703125 C127.55870956 15.48707474 127.55882538 14.76711823 127.5589447 14.02534485 C127.67742443 7.91480527 128.99986584 3.23544406 133.125 -1.375 C137.69685173 -3.95909011 142.08249116 -4.7807418 147.21875 -3.40625 C152.32757063 -1.19496943 154.8048882 1.86161728 157 7 C157.36667112 9.88911863 157.54056083 12.37572443 157.49609375 15.25 C157.49754898 16.02577393 157.49900421 16.80154785 157.50050354 17.60083008 C157.49885135 19.23799401 157.48736657 20.87517458 157.46655273 22.51220703 C157.43789851 24.96587515 157.44589832 27.41733415 157.45898438 29.87109375 C157.42560111 55.16250933 149.68532203 77.59829473 132 96 C119.33577386 108.39299889 101.22126965 115.12978839 84 118 C83.67 125.26 83.34 132.52 83 140 C85.55041016 139.89558594 85.55041016 139.89558594 88.15234375 139.7890625 C90.41402275 139.73275514 92.67574479 139.67815821 94.9375 139.625 C96.05447266 139.57472656 97.17144531 139.52445313 98.32226562 139.47265625 C105.2716129 139.35038034 109.6427838 140.18146469 115.29516602 144.31005859 C117.782977 146.77613731 118.8225975 149.01161463 119.4375 152.4375 C118.79885255 156.17814934 116.84900811 157.61478391 114 160 C110.27883627 161.24038791 106.81282376 161.16357153 102.93603516 161.17700195 C101.70384499 161.18685875 101.70384499 161.18685875 100.44676208 161.19691467 C97.72752796 161.21663064 95.00834897 161.22830526 92.2890625 161.23828125 C91.36028667 161.24235678 90.43151085 161.2464323 89.4745903 161.25063133 C84.56053642 161.27148285 79.64651041 161.28578965 74.73242188 161.29516602 C69.65578125 161.3062404 64.57957774 161.34065474 59.50309181 161.38033772 C55.59973328 161.40647007 51.69647955 161.41485474 47.79304123 161.41844749 C45.92153337 161.42332067 44.05003041 161.4349554 42.17860794 161.45348549 C39.55963595 161.47780969 36.94180406 161.47692466 34.32275391 161.4699707 C33.16456902 161.48918579 33.16456902 161.48918579 31.98298645 161.50878906 C28.27286777 161.47289535 26.19293622 161.12422694 23.04232788 159.09562683 C20.41146202 156.39610285 20.05430927 155.47973186 19.625 151.6875 C20.09845804 147.03182929 21.44129069 145.91167125 25 143 C25.90057129 142.19695435 25.90057129 142.19695435 26.81933594 141.37768555 C29.60433993 139.61819411 31.36472147 139.65475619 34.640625 139.70703125 C35.71054687 139.71669922 36.78046875 139.72636719 37.8828125 139.73632812 C38.99398437 139.76146484 40.10515625 139.78660156 41.25 139.8125 C42.37664062 139.82603516 43.50328125 139.83957031 44.6640625 139.85351562 C47.44291281 139.88883999 50.22151707 139.94264599 53 140 C53 132.41 53 124.82 53 117 C50.3084375 116.814375 50.3084375 116.814375 47.5625 116.625 C28.2726328 114.95546763 12.74930017 106.49638662 -1 93 C-2.03253906 92.00419922 -2.03253906 92.00419922 -3.0859375 90.98828125 C-12.54999671 81.16885223 -19.02529341 68.23975627 -22 55 C-22.17370117 54.28320068 -22.34740234 53.56640137 -22.52636719 52.82788086 C-24.32623704 44.48704011 -24.37227633 36.18547985 -24.37060547 27.69165039 C-24.37502259 25.17462598 -24.41157915 22.65929895 -24.44921875 20.14257812 C-24.45508086 18.52604758 -24.4590543 16.90950883 -24.4609375 15.29296875 C-24.47530853 14.54911423 -24.48967957 13.8052597 -24.50448608 13.03886414 C-24.44892844 6.67515015 -22.03075746 3.34806331 -18 -1.3125 C-12.13499386 -6.26109893 -5.58532415 -4.37112324 0 0 Z " fill="#F0672E" transform="translate(423,285)"/>
<path d="M0 0 C5.625 -0.25 5.625 -0.25 9 2 C9.38818359 4.33154297 9.38818359 4.33154297 9.3984375 7.2421875 C9.40230469 8.30953125 9.40617188 9.376875 9.41015625 10.4765625 C9.39855469 11.59804688 9.38695312 12.71953125 9.375 13.875 C9.38660156 14.9578125 9.39820313 16.040625 9.41015625 17.15625 C9.35303097 33.11324615 4.60266217 45.41711888 -6.5 57 C-10.36686251 60.62187293 -14.30650627 63.54844696 -19 66 C-20.01126953 66.53560547 -20.01126953 66.53560547 -21.04296875 67.08203125 C-37.36094297 75.01809522 -58.88369066 75.59183633 -76.07421875 70 C-91.02528829 64.18037754 -103.25665064 55.10859005 -110.2265625 40.4140625 C-112.93920574 33.91542798 -114.13410252 28.01588977 -114.09765625 20.9453125 C-114.09443359 19.83671875 -114.09121094 18.728125 -114.08789062 17.5859375 C-114.07951172 16.44382812 -114.07113281 15.30171875 -114.0625 14.125 C-114.05798828 12.9596875 -114.05347656 11.794375 -114.04882812 10.59375 C-114.03708781 7.72911355 -114.0206657 4.86458367 -114 2 C-110.535 1.505 -110.535 1.505 -107 1 C-106.86464844 2.13695312 -106.72929687 3.27390625 -106.58984375 4.4453125 C-105.15228209 15.20070667 -102.72064125 23.71017606 -97 33 C-96.57203125 33.70511719 -96.1440625 34.41023438 -95.703125 35.13671875 C-88.74166706 44.69798043 -74.15302654 50.14502677 -63 52 C-46.50371428 53.70993429 -29.27392908 50.8924208 -15.984375 40.41015625 C-4.64494834 29.93351206 -0.61281452 15.01395581 0 0 Z " fill="#0E3C9D" transform="translate(542,302)"/>
<path d="M0 0 C0.66666667 1.33333333 1.33333333 2.66666667 2 4 C2.46921875 4.92039062 2.9384375 5.84078125 3.421875 6.7890625 C5.13527583 10.27523944 6.7084645 13.81077905 8.25 17.375 C8.86042278 18.78266239 9.47110808 20.19021096 10.08203125 21.59765625 C10.39479004 22.31840332 10.70754883 23.03915039 11.02978516 23.78173828 C12.01121884 26.02565032 13.00904291 28.26160073 14.01171875 30.49609375 C14.49560059 31.58108154 14.49560059 31.58108154 14.98925781 32.68798828 C15.61064825 34.08019724 16.23615521 35.4705778 16.86621094 36.85888672 C18.15259834 39.75510875 19 41.7926955 19 45 C9.34661019 56.32769048 -6.29468691 64.69358391 -20 70 C-20.99 70 -21.98 70 -23 70 C-23.20753906 69.46890625 -23.41507813 68.9378125 -23.62890625 68.390625 C-23.93699219 67.68421875 -24.24507812 66.9778125 -24.5625 66.25 C-24.99755859 65.20585937 -24.99755859 65.20585937 -25.44140625 64.140625 C-27.76557672 60.94853123 -30.32811232 59.2696045 -34 58 C-38.31176213 57.39699679 -42.58815286 57.30439775 -46.9375 57.25 C-48.09830078 57.22035156 -49.25910156 57.19070313 -50.45507812 57.16015625 C-53.30301766 57.08983676 -56.15151114 57.04261016 -59 57 C-59 49.74 -59 42.48 -59 35 C-56.69 34.34 -54.38 33.68 -52 33 C-30.98472959 26.61245326 -12.73637197 18.75720235 0 0 Z " fill="#0B3EA9" transform="translate(565,368)"/>
<path d="M0 0 C6.73730228 6.92979664 8.49271143 13.6829471 8.50219727 23.12451172 C8.37285923 29.89753887 7.14283347 33.91055157 2.71484375 38.9140625 C-3.48634702 44.86603284 -10.80973085 47.44237946 -19.3125 47.8125 C-28.16843227 47.47949197 -34.14799626 44.33498934 -40.25 38 C-45.30386626 31.83326218 -47.43645223 25.47590127 -47.08984375 17.50390625 C-46.10288171 9.48310204 -42.93115353 3.56483042 -36.8125 -1.75 C-25.76668814 -9.68777978 -10.79401274 -6.7162746 0 0 Z " fill="#FBFCFD" transform="translate(299.8125,133.75)"/>
<path d="M0 0 C6.04784528 4.4403325 9.97195005 10.27806022 11.56640625 17.6015625 C12.65355398 25.72656134 10.99592121 32.08208058 7.3125 39.3125 C1.96470325 45.52750703 -4.8652944 48.50135405 -12.9765625 49.2890625 C-21.86550365 49.68458916 -28.33553996 48.13540975 -35.06640625 42.16796875 C-41.87705167 34.95920627 -43.67238777 28.09328899 -43.41015625 18.25390625 C-42.56063766 11.51439211 -39.63034932 6.18791863 -34.6875 1.5625 C-24.37007815 -6.25305775 -11.24889179 -6.01478599 0 0 Z " fill="#FBFCFD" transform="translate(382,132)"/>
<path d="M0 0 C7.33121222 4.45867591 11.89519998 10.13542804 13.9375 18.49609375 C15.31846024 26.39962513 14.50523731 32.98091693 10.375 40 C4.87991017 46.47982938 -1.02514643 49.61984681 -9.40625 50.3125 C-16.75570311 50.62271258 -23.61236813 50.74533242 -29.625 46 C-30.55892578 45.27103516 -30.55892578 45.27103516 -31.51171875 44.52734375 C-37.02810814 39.63545127 -39.98298222 33.75676808 -40.96875 26.453125 C-41.26288556 18.56048748 -39.19568038 10.82077532 -34.23046875 4.57421875 C-25.61526134 -3.87329606 -10.77483978 -4.84373531 0 0 Z " fill="#FBFCFD" transform="translate(207.625,130)"/>
<path d="M0 0 C-3.59536929 3.77042473 -7.39549538 6.951601 -11.625 10 C-12.27178711 10.47074951 -12.91857422 10.94149902 -13.58496094 11.42651367 C-19.52860113 15.72250254 -25.59427385 19.83431104 -31.6640625 23.94897461 C-38.23227523 28.42317481 -44.63457721 33.09671691 -51.01245117 37.83691406 C-56.82856902 42.15475003 -62.71118583 46.36423062 -68.64355469 50.52050781 C-73.13965502 53.67430023 -77.59722277 56.87589647 -82.03564453 60.11035156 C-85.67664909 62.75959846 -89.33390275 65.38561496 -93 68 C-93.57572754 68.4125 -94.15145508 68.825 -94.74462891 69.25 C-99.07868028 72.32156394 -102.62204808 74.73329963 -107.875 75.75 C-111.8490596 74.7962257 -113.42386723 73.10651305 -116 70 C-116.33 69.67 -116.66 69.34 -117 69 C-117.07226502 67.14712498 -117.0838122 65.29166122 -117.0625 63.4375 C-117.05347656 62.42558594 -117.04445312 61.41367187 -117.03515625 60.37109375 C-117.02355469 59.58863281 -117.01195312 58.80617188 -117 58 C-116.67 58 -116.34 58 -116 58 C-116 60.31 -116 62.62 -116 65 C-103.86466046 58.39004476 -103.86466046 58.39004476 -92 51.3125 C-85.47187889 47.22619519 -78.80281392 43.39831017 -72.125 39.5625 C-63.33637628 34.51242421 -54.5841825 29.41715561 -45.91699219 24.16162109 C-39.49205141 20.26836228 -33.05104995 16.40205778 -26.59912109 12.55371094 C-24.84203372 11.50335362 -23.08720377 10.44921217 -21.33447266 9.39160156 C-18.74998909 7.83379163 -16.15734682 6.29046969 -13.5625 4.75 C-12.77584961 4.27191895 -11.98919922 3.79383789 -11.17871094 3.30126953 C-4.43233749 -0.66969712 -4.43233749 -0.66969712 0 0 Z " fill="#0C42AD" transform="translate(276,317)"/>
<path d="M0 0 C0.17015625 1.19496094 0.3403125 2.38992188 0.515625 3.62109375 C2.10523598 14.75794008 2.10523598 14.75794008 6.1015625 25.203125 C7 27 7 27 7.9375 30.4375 C11.8497219 43.5549499 19.56069177 52.22054553 31.2734375 59.078125 C36.76538184 62.01713827 42.55064364 64.29618171 48.34765625 66.5546875 C52 68 52 68 54.16796875 69.15625 C56.53727598 70.2474448 58.65770231 70.42034492 61.25 70.625 C62.14203125 70.69976562 63.0340625 70.77453125 63.953125 70.8515625 C64.62859375 70.90054688 65.3040625 70.94953125 66 71 C66 71.33 66 71.66 66 72 C44.04183881 72.41736737 23.99946699 70.55212662 7.1875 54.625 C-1.94017365 44.82039362 -7.16708798 33.41506725 -7.09765625 19.9453125 C-7.09443359 18.83671875 -7.09121094 17.728125 -7.08789062 16.5859375 C-7.07951172 15.44382812 -7.07113281 14.30171875 -7.0625 13.125 C-7.05798828 11.9596875 -7.05347656 10.794375 -7.04882812 9.59375 C-7.03708781 6.72911355 -7.0206657 3.86458367 -7 1 C-4.50935112 0.31292445 -2.62113708 0 0 0 Z " fill="#0D378D" transform="translate(435,303)"/>
<path d="M0 0 C0 5.94 0 11.88 0 18 C-0.495 17.01 -0.495 17.01 -1 16 C-2.82374146 16.03927612 -2.82374146 16.03927612 -4.68432617 16.0793457 C-9.20350681 16.1699776 -13.72260744 16.22729648 -18.24243164 16.2746582 C-20.19699623 16.29977281 -22.15146717 16.33387131 -24.10571289 16.37719727 C-26.91836668 16.43798434 -29.72977702 16.46623983 -32.54296875 16.48828125 C-33.41398727 16.51408768 -34.2850058 16.5398941 -35.18241882 16.56648254 C-39.61393858 16.56852233 -41.42826612 16.43762741 -45.0559082 13.66088867 C-47 11 -47 11 -47.5625 7.9375 C-46.84291133 4.17964805 -46.10155716 3.24567993 -43 1 C-39.82532168 0.38252328 -36.683823 0.39505509 -33.45703125 0.390625 C-32.53282883 0.37408875 -31.6086264 0.35755249 -30.65641785 0.34051514 C-27.70837809 0.2919944 -24.76085377 0.27065986 -21.8125 0.25 C-19.81572916 0.22184228 -17.81898243 0.19191513 -15.82226562 0.16015625 C-5.20180602 0 -5.20180602 0 0 0 Z " fill="#3D7AE2" transform="translate(543,277)"/>
<path d="M0 0 C0 5.61 0 11.22 0 17 C-6.05127713 16.9806 -12.10109588 16.92894443 -18.15185547 16.84741211 C-20.21004286 16.82421898 -22.26834915 16.80983332 -24.32666016 16.80444336 C-27.28623668 16.79516345 -30.24393965 16.75419415 -33.203125 16.70703125 C-34.12305237 16.7109639 -35.04297974 16.71489655 -35.99078369 16.71894836 C-42.37105796 16.57331767 -42.37105796 16.57331767 -45.58105469 13.6472168 C-47.31772926 10.40723704 -47.61682702 8.62385875 -47 5 C-45.56518555 2.85449219 -45.56518555 2.85449219 -43 1 C-39.82529633 0.38259452 -36.683839 0.39505511 -33.45703125 0.390625 C-32.53282883 0.37408875 -31.6086264 0.35755249 -30.65641785 0.34051514 C-27.70837809 0.2919944 -24.76085377 0.27065986 -21.8125 0.25 C-19.81572916 0.22184228 -17.81898243 0.19191513 -15.82226562 0.16015625 C-5.20180602 0 -5.20180602 0 0 0 Z " fill="#3F7CE4" transform="translate(543,238)"/>
<path d="M0 0 C3.5 0.25 3.5 0.25 5.5 2.25 C3.9221875 2.37375 3.9221875 2.37375 2.3125 2.5 C-1.95266373 3.3390486 -3.19166406 4.55716842 -6.5 7.25 C-27.90170009 18.22827949 -63.11652327 17.61840899 -85.94140625 11.296875 C-93.22265023 8.80469954 -93.22265023 8.80469954 -94.5 6.25 C-92.93811699 6.24120064 -92.93811699 6.24120064 -91.34468079 6.23222351 C-81.53041826 6.17500326 -71.71637746 6.10224522 -61.90234089 6.01428509 C-56.85686656 5.96956319 -51.81147332 5.930311 -46.76586914 5.90356445 C-41.89630281 5.87754973 -37.02704822 5.83716016 -32.15767479 5.78681374 C-30.30019191 5.77013265 -28.4426551 5.75862611 -26.5851078 5.75238609 C-23.98259448 5.74275851 -21.38088092 5.71471564 -18.77856445 5.68237305 C-18.0110788 5.68380814 -17.24359314 5.68524323 -16.45285034 5.6867218 C-9.36684852 5.56222968 -6.15183029 0.43941645 0 0 Z " fill="#07389A" transform="translate(544.5,439.75)"/>
<path d="M0 0 C2.28251694 2.19797928 4.29577042 4.38130682 6.2421875 6.890625 C14.48929108 16.81626207 28.67336794 20.25762378 40.71484375 22.77734375 C44.70898557 24.2638674 45.3727668 25.38399978 47.125 29.1875 C49.40933628 33.85442358 51.87139046 37.85919325 55 42 C53.60307061 41.91174084 52.20739548 41.80355166 50.8125 41.6875 C49.64654297 41.60048828 49.64654297 41.60048828 48.45703125 41.51171875 C45.49236249 40.89427581 43.56823137 39.59059647 41 38 C38.95178011 37.19198665 36.88783002 36.423092 34.8125 35.6875 C20.45573829 30.23904426 9.08380899 21.85650475 2 8 C1.6184375 7.32582031 1.236875 6.65164063 0.84375 5.95703125 C0 4 0 4 0 0 Z " fill="#1155CA" transform="translate(442,332)"/>
<path d="M0 0 C13.2 0 26.4 0 40 0 C40 7.92 40 15.84 40 24 C26.8 24 13.6 24 0 24 C0 23.67 0 23.34 0 23 C12.87 23 25.74 23 39 23 C38.00516798 21.78356708 38.00516798 21.78356708 36.05053711 21.88647461 C34.8015564 21.89432983 34.8015564 21.89432983 33.52734375 21.90234375 C32.17866211 21.90717773 32.17866211 21.90717773 30.80273438 21.91210938 C29.85720703 21.92048828 28.91167969 21.92886719 27.9375 21.9375 C26.5134082 21.94426758 26.5134082 21.94426758 25.06054688 21.95117188 C22.70696935 21.9629989 20.35351523 21.97947975 18 22 C17.97111486 18.85418577 17.95324077 15.70840531 17.9375 12.5625 C17.92912109 11.66466797 17.92074219 10.76683594 17.91210938 9.84179688 C17.90727539 8.56079102 17.90727539 8.56079102 17.90234375 7.25390625 C17.89448853 6.06776733 17.89448853 6.06776733 17.88647461 4.85766602 C18 3 18 3 19 2 C20.40443152 1.92553385 21.81249949 1.9167009 23.21875 1.9375 C24.06824219 1.94523438 24.91773438 1.95296875 25.79296875 1.9609375 C27.59765625 1.98697917 29.40234375 2.01302083 31.20703125 2.0390625 C32.05652344 2.04679687 32.90601563 2.05453125 33.78125 2.0625 C34.56564453 2.07410156 35.35003906 2.08570313 36.15820312 2.09765625 C38.01800889 2.2048828 38.01800889 2.2048828 39 1 C26.13 1 13.26 1 0 1 C0 0.67 0 0.34 0 0 Z " fill="#E6ECF7" transform="translate(502,254)"/>
<path d="M0 0 C31.68 0 63.36 0 96 0 C93 4 93 4 90 5 C87.30400157 5.11674426 84.63286913 5.17806976 81.93603516 5.19287109 C80.70384499 5.20513733 80.70384499 5.20513733 79.44676208 5.21765137 C76.72753628 5.24247058 74.00836248 5.25901061 71.2890625 5.2734375 C70.36028667 5.27876118 69.43151085 5.28408485 68.4745903 5.28956985 C63.56054256 5.31628367 58.64652009 5.33566604 53.73242188 5.35009766 C49.66415998 5.36345037 45.59639807 5.39132981 41.52832031 5.43212891 C36.61648799 5.48138996 31.70511005 5.50621031 26.79304123 5.51332474 C24.92151302 5.52004459 23.04999523 5.53528571 21.17860794 5.55921555 C18.55945052 5.59080209 15.94205144 5.59091434 13.32275391 5.58349609 C12.55063065 5.59990143 11.77850739 5.61630676 10.98298645 5.63320923 C4.94672684 5.56325012 4.74819449 4.74819449 0 0 Z " fill="#BA4822" transform="translate(444,441)"/>
<path d="M0 0 C5.625 -0.25 5.625 -0.25 9 2 C9.37231445 4.39501953 9.37231445 4.39501953 9.36328125 7.3828125 C9.36263672 8.46820313 9.36199219 9.55359375 9.36132812 10.671875 C9.34521484 11.81140625 9.32910156 12.9509375 9.3125 14.125 C9.31572266 15.24132812 9.31894531 16.35765625 9.32226562 17.5078125 C9.28223123 23.68038789 8.81234966 29.09361745 7 35 C6.34 35 5.68 35 5 35 C3.35 31.37 1.7 27.74 0 24 C-0.99 24.33 -1.98 24.66 -3 25 C-4.17690869 21.46927393 -3.7246598 20.47048598 -2.625 17 C-0.97050702 11.3414829 -0.32933869 5.87131384 0 0 Z " fill="#114CB2" transform="translate(542,302)"/>
<path d="M0 0 C27.72 0 55.44 0 84 0 C84 0.33 84 0.66 84 1 C59.25 1 34.5 1 9 1 C9 1.66 9 2.32 9 3 C4.545 2.01 4.545 2.01 0 1 C0 0.67 0 0.34 0 0 Z " fill="#183A8C" transform="translate(450,446)"/>
<path d="M0 0 C0.33 0 0.66 0 1 0 C1.16950701 2.83318859 1.33567534 5.66650988 1.5 8.5 C1.54769531 9.29148437 1.59539062 10.08296875 1.64453125 10.8984375 C1.86031924 14.65931393 2.01966057 18.38886804 1.96875 22.15625 C1.9990771 25.88648373 2.38747947 29.32487682 3 33 C3.185625 34.134375 3.37125 35.26875 3.5625 36.4375 C3.706875 37.283125 3.85125 38.12875 4 39 C3.01 39.495 3.01 39.495 2 40 C-0.25029451 31.48845762 -0.23506025 23.10713834 -0.125 14.375 C-0.11494398 12.97526686 -0.10582279 11.57552669 -0.09765625 10.17578125 C-0.07426238 6.78367075 -0.04148173 3.3919294 0 0 Z " fill="#1251C1" transform="translate(338,317)"/>
<path d="M0 0 C3.5 0.25 3.5 0.25 5.5 2.25 C4.448125 2.3325 3.39625 2.415 2.3125 2.5 C-1.84717298 3.31829632 -3.39461667 4.48033379 -6.5 7.25 C-8.625 8.5625 -8.625 8.5625 -10.5 9.25 C-11.49 8.92 -12.48 8.59 -13.5 8.25 C-11.12630732 5.62644494 -8.53386523 4.03920257 -5.5 2.25 C-3.5 0.25 -3.5 0.25 0 0 Z " fill="#1A51B1" transform="translate(544.5,439.75)"/>
<path d="M0 0 C2.64745321 0.28056438 5.29237964 0.57385631 7.9375 0.875 C8.69224609 0.95363281 9.44699219 1.03226562 10.22460938 1.11328125 C12.15919299 1.33883808 14.08176019 1.66258974 16 2 C16.33 2.66 16.66 3.32 17 4 C14.73020335 4.10794277 12.45894804 4.18556176 10.1875 4.25 C8.92292969 4.29640625 7.65835937 4.3428125 6.35546875 4.390625 C3 4 3 4 1.05078125 1.984375 C0.53064453 1.00210937 0.53064453 1.00210937 0 0 Z " fill="#C04521" transform="translate(444,441)"/>
<path d="M0 0 C1.37478516 0.01740234 1.37478516 0.01740234 2.77734375 0.03515625 C3.69644531 0.04417969 4.61554687 0.05320312 5.5625 0.0625 C6.27277344 0.07410156 6.98304688 0.08570313 7.71484375 0.09765625 C3.40715144 4.03611779 3.40715144 4.03611779 -0.09765625 4.34765625 C-1.18046875 4.22390625 -1.18046875 4.22390625 -2.28515625 4.09765625 C-2.61515625 3.10765625 -2.94515625 2.11765625 -3.28515625 1.09765625 C-2.28515625 0.09765625 -2.28515625 0.09765625 0 0 Z " fill="#0A3EA7" transform="translate(525.28515625,446.90234375)"/>
<path d="M0 0 C0.66 0.66 1.32 1.32 2 2 C0.61392377 3.46761013 -0.78431195 4.92374189 -2.1875 6.375 C-2.96480469 7.18710937 -3.74210938 7.99921875 -4.54296875 8.8359375 C-6.987055 10.98859852 -8.92616557 12.00632706 -12 13 C-11.319375 12.34 -10.63875 11.68 -9.9375 11 C-6.43274653 7.50531766 -3.22778212 3.74869221 0 0 Z " fill="#284595" transform="translate(562,372)"/>
<path d="M0 0 C1.06751688 3.30421892 0.98942604 4.03172187 -0.1875 7.5625 C-1.89083122 10.79295577 -2.91363322 12.19075051 -6 14 C-5.31113213 10.61108678 -4.01283514 7.81988387 -2.4375 4.75 C-1.75494141 3.41195313 -1.75494141 3.41195313 -1.05859375 2.046875 C-0.70925781 1.37140625 -0.35992188 0.6959375 0 0 Z " fill="#3863BA" transform="translate(572,355)"/>
<path d="M0 0 C0 0.99 0 1.98 0 3 C0.66 3.66 1.32 4.32 2 5 C-1.3 4.67 -4.6 4.34 -8 4 C-8 3.34 -8 2.68 -8 2 C-2.25 0 -2.25 0 0 0 Z " fill="#DAE1F1" transform="translate(550,436)"/>
<path d="M0 0 C5.54050113 0.56825653 10.03715966 2.62886517 15 5 C15 5.33 15 5.66 15 6 C9.22621075 5.5188509 5.04140164 3.81532819 0 1 C0 0.67 0 0.34 0 0 Z " fill="#2960C9" transform="translate(402,432)"/>
<path d="M0 0 C2.76276177 0.52268466 5.3260876 1.10869587 8 2 C8 1.34 8 0.68 8 0 C8.99 0.33 9.98 0.66 11 1 C10.67 1.66 10.34 2.32 10 3 C10.99 3.33 11.98 3.66 13 4 C11 5 11 5 8.3984375 4.22265625 C6.90183594 3.64837891 6.90183594 3.64837891 5.375 3.0625 C4.37210937 2.68222656 3.36921875 2.30195313 2.3359375 1.91015625 C1.56507813 1.60980469 0.79421875 1.30945313 0 1 C0 0.67 0 0.34 0 0 Z " fill="#0C44AD" transform="translate(451,447)"/>
<path d="M0 0 C-1.65 1.65 -3.3 3.3 -5 5 C-6.32 4.01 -7.64 3.02 -9 2 C-5.86501708 0.14223235 -3.62528568 -0.20140476 0 0 Z " fill="#0F4BB6" transform="translate(276,317)"/>
<path d="M0 0 C0.391875 0.53625 0.78375 1.0725 1.1875 1.625 C3.3755388 4.49208532 5.67879296 7.23964568 8 10 C7.01 10 6.02 10 5 10 C1.93193534 6.84169815 0.50057152 4.38000076 0 0 Z " fill="#1E58C6" transform="translate(425,462)"/>
<path d="M0 0 C0.66 0.33 1.32 0.66 2 1 C0.35 2.98 -1.3 4.96 -3 7 C-3.99 6.67 -4.98 6.34 -6 6 C-4.02 4.02 -2.04 2.04 0 0 Z " fill="#E67837" transform="translate(407,282)"/>
<path d="M0 0 C3.63 0 7.26 0 11 0 C10.01 0.495 10.01 0.495 9 1 C9 1.66 9 2.32 9 3 C4.545 2.01 4.545 2.01 0 1 C0 0.67 0 0.34 0 0 Z " fill="#0D358E" transform="translate(450,446)"/>
<path d="M0 0 C3.465 1.98 3.465 1.98 7 4 C7 4.66 7 5.32 7 6 C6.34 6 5.68 6 5 6 C5 5.34 5 4.68 5 4 C3.35 4 1.7 4 0 4 C0 2.68 0 1.36 0 0 Z " fill="#2757BE" transform="translate(436,389)"/>
</svg>
