<?xml version="1.0" encoding="UTF-8"?>
<svg version="1.1" xmlns="http://www.w3.org/2000/svg" width="640" height="478">
<path d="M0 0 C211.2 0 422.4 0 640 0 C640 157.74 640 315.48 640 478 C428.8 478 217.6 478 0 478 C0 320.26 0 162.52 0 0 Z " fill="#F0F1F7" transform="translate(0,0)"/>
<path d="M0 0 C3.04046847 1.42042098 5.13977773 3.30000333 7.58576584 5.59530735 C8.48037521 6.42159641 9.37498459 7.24788548 10.29670334 8.0992136 C12.40715922 10.15974983 14.33672887 12.31756563 16.24811935 14.56308079 C20.77940647 19.76405177 25.64605776 24.61154318 30.52717209 29.4820261 C31.51185023 30.46737982 32.49638005 31.45288177 33.48077011 32.43852329 C35.53067104 34.48988787 37.58234225 36.5394602 39.63532639 38.58773899 C42.25329381 41.19999478 44.86672436 43.81673626 47.47884846 46.43483353 C49.50602573 48.4656397 51.53559762 50.49403929 53.56588173 52.52173901 C54.99512543 53.95000145 56.42237362 55.38025988 57.84957504 56.81056309 C63.11933926 62.08971868 63.11933926 62.08971868 68.84724045 66.84848118 C71.21076584 69.03280735 71.21076584 69.03280735 71.73238754 71.25742626 C70.94220193 75.46174943 68.18147912 77.73695068 65.22834396 80.62323093 C64.58470366 81.27184892 63.94106337 81.92046691 63.27791882 82.58873999 C61.11101667 84.76624666 58.92667124 86.92536947 56.74201584 89.08505344 C55.18744629 90.63984961 53.63396952 92.19573905 52.08150864 93.75264072 C47.85474105 97.98512828 43.61260651 102.20190594 39.36749268 106.41598177 C34.92763113 110.82832946 30.50151385 115.25442161 26.07380295 119.67895603 C18.63010576 127.11343988 11.17737781 134.53877809 3.71809006 141.95761204 C-3.94623069 149.58040319 -11.60394883 157.20973691 -19.25358963 164.84726048 C-19.7239987 165.31692133 -20.19440777 165.78658219 -20.67907166 166.27047519 C-23.0400358 168.6277256 -25.40096098 170.98501501 -27.7618866 173.34230399 C-35.03360982 180.60154867 -42.30942244 187.85669421 -49.58601761 195.1110549 C-51.34790619 196.86758812 -53.1096858 198.62423064 -54.87135696 200.38098192 C-59.90002711 205.39529808 -64.93125505 210.40702017 -69.9665432 215.41469097 C-71.48949058 216.92995166 -73.01163525 218.44601965 -74.53289986 219.96296978 C-76.61663137 222.04042831 -78.70338648 224.11480269 -80.79094315 226.18841648 C-81.68398022 227.08070692 -81.68398022 227.08070692 -82.59505844 227.99102342 C-86.27646092 231.63963927 -90.0839154 235.08164214 -94.03502369 238.43700469 C-95.66831448 239.9228069 -96.99579085 241.42131086 -98.35173416 243.15780735 C-101.25347978 246.5803791 -103.99448355 248.64351993 -107.78923416 251.03280735 C-108.77923416 251.03280735 -109.76923416 251.03280735 -110.78923416 251.03280735 C-111.11923416 251.69280735 -111.44923416 252.35280735 -111.78923416 253.03280735 C-116.93523024 255.68818009 -121.9263486 257.6499532 -127.78923416 257.03280735 C-127.78923416 257.69280735 -127.78923416 258.35280735 -127.78923416 259.03280735 C-133.35827334 260.98685618 -138.96635735 262.68327604 -144.66423416 264.22030735 C-145.31851395 264.39916477 -145.97279373 264.57802219 -146.64690018 264.76229954 C-149.457152 265.50936998 -151.86645945 266.03280735 -154.78923416 266.03280735 C-154.78923416 266.69280735 -154.78923416 267.35280735 -154.78923416 268.03280735 C-158.08923416 268.36280735 -161.38923416 268.69280735 -164.78923416 269.03280735 C-164.78923416 269.69280735 -164.78923416 270.35280735 -164.78923416 271.03280735 C-168.60382244 272.85717566 -172.03270315 274.16498575 -176.20329666 274.8804636 C-182.71546275 276.12999519 -188.96951978 278.110633 -195.28923416 280.09530735 C-196.46743729 280.45946751 -197.64564041 280.82362766 -198.85954666 281.19882298 C-204.43825612 282.82339628 -204.43825612 282.82339628 -209.78923416 285.03280735 C-212.78923416 285.22030735 -212.78923416 285.22030735 -215.78923416 285.03280735 C-217.78923416 283.03280735 -217.78923416 283.03280735 -218.08610916 279.9351511 C-217.74314298 275.42695096 -216.61384549 271.80057943 -215.03923416 267.59530735 C-214.66024979 266.5269968 -214.66024979 266.5269968 -214.27360916 265.43710423 C-212.68972857 261.0774729 -210.8389716 256.94621348 -208.70256424 252.82968235 C-207.24515748 249.96239719 -206.02964134 246.99899842 -204.78923416 244.03280735 C-204.22797731 242.71977527 -203.6655057 241.40726168 -203.10173416 240.09530735 C-202.66860916 239.08468235 -202.23548416 238.07405735 -201.78923416 237.03280735 C-198.21646512 238.5465546 -195.93243045 240.65175123 -193.22673416 243.40780735 C-192.4623201 244.17866673 -191.69790604 244.9495261 -190.91032791 245.74374485 C-185.78923416 251.27037641 -185.78923416 251.27037641 -185.78923416 254.03280735 C-177.77783313 254.46726511 -173.52478656 251.92711771 -167.63689041 246.6851511 C-166.69716385 245.80987766 -165.75743729 244.93460423 -164.78923416 244.03280735 C-163.8185701 243.16784641 -162.84790604 242.30288548 -161.84782791 241.4117136 C-154.55696364 234.89325725 -147.64783807 228.00085707 -140.78923416 221.03280735 C-145.60657929 215.19360114 -150.84144945 209.82684459 -156.20183182 204.4898386 C-157.65790156 203.0391167 -159.10856192 201.58314076 -160.55876541 200.12655735 C-165.27807232 195.40423259 -170.04608355 190.79297768 -175.13737869 186.47030735 C-175.682491 185.99593235 -176.2276033 185.52155735 -176.78923416 185.03280735 C-177.37688553 184.59968235 -177.9645369 184.16655735 -178.56999588 183.72030735 C-179.78923416 182.03280735 -179.78923416 182.03280735 -179.78845215 179.39045715 C-178.36468461 174.606203 -175.52622626 172.07405338 -172.02098465 168.6229105 C-170.94693693 167.5361045 -170.94693693 167.5361045 -169.85119128 166.42734283 C-167.44552302 163.99936529 -165.02233866 161.58967076 -162.59880447 159.17953587 C-160.87176771 157.44408837 -159.14578987 155.70758653 -157.42079544 153.97010899 C-153.21724539 149.74227329 -149.00206066 145.52637426 -144.7808471 141.31619883 C-141.35131565 137.89522415 -137.92650734 134.46958803 -134.50501633 131.04057217 C-134.01813185 130.5526328 -133.53124738 130.06469344 -133.02960883 129.56196804 C-132.0405591 128.57074741 -131.05151732 127.57951886 -130.0624834 126.58828246 C-120.78842409 117.29479425 -111.49871156 108.01707899 -102.20383391 98.74441891 C-94.22493584 90.78378182 -86.26074798 82.80866602 -78.30681229 74.82309055 C-69.07239331 65.55194035 -59.82821359 56.2906955 -50.56880641 47.04449695 C-49.58209317 46.05912484 -48.59539599 45.07373664 -47.60871506 44.08833218 C-46.88048777 43.36105089 -46.88048777 43.36105089 -46.13754882 42.61907705 C-42.71323523 39.19779464 -39.29613226 35.76941047 -35.88180161 32.33816814 C-31.28956233 27.72352639 -26.68181438 23.12479533 -22.06313324 18.53659344 C-20.36680237 16.84661908 -18.675611 15.15146849 -16.98987579 13.45092487 C-14.69526443 11.13779053 -12.38313611 8.84376529 -10.06541824 6.5538187 C-9.39585767 5.87019168 -8.7262971 5.18656466 -8.03644681 4.48222166 C-3.48532175 0.04099483 -3.48532175 0.04099483 0 0 Z " fill="#3677E5" transform="translate(441.78923416137695,90.96719264984131)"/>
<path d="M0 0 C3.72415003 1.32351175 6.04600712 3.82988848 8.7734375 6.61328125 C10.1346875 7.9909668 10.1346875 7.9909668 11.5234375 9.39648438 C12.4743297 10.36812629 13.42484785 11.34013439 14.375 12.3125 C16.23358453 14.20783439 18.096462 16.0987172 19.9609375 17.98828125 C20.83202148 18.87338379 21.70310547 19.75848633 22.60058594 20.67041016 C24.55455819 22.56752078 26.4924804 24.22518824 28.6640625 25.85546875 C31 28 31 28 31.51989746 30.22213173 C30.73257112 34.42890136 27.97178383 36.70309702 25.01757812 39.59042358 C24.37393783 40.23904157 23.73029753 40.88765956 23.06715298 41.55593264 C20.90025084 43.73343931 18.71590541 45.89256212 16.53125 48.05224609 C14.97668046 49.60704226 13.42320368 51.1629317 11.8707428 52.71983337 C7.64397521 56.95232093 3.40184067 61.16909859 -0.84327316 65.38317442 C-5.2831347 69.79552211 -9.70925199 74.22161426 -14.13696289 78.64614868 C-21.58066008 86.08063253 -29.03338803 93.50597074 -36.49267578 100.92480469 C-44.15699653 108.54759584 -51.81471467 116.17692956 -59.46435547 123.81445312 C-59.93476454 124.28411398 -60.40517361 124.75377484 -60.8898375 125.23766784 C-63.25080164 127.59491825 -65.61172682 129.95220766 -67.97265244 132.30949664 C-75.24437566 139.56874132 -82.52018828 146.82388686 -89.79678345 154.07824755 C-91.55867203 155.83478077 -93.32045164 157.59142329 -95.0821228 159.34817457 C-100.11079295 164.36249073 -105.14202089 169.37421282 -110.17730904 174.38188362 C-111.70025642 175.89714431 -113.22240109 177.4132123 -114.7436657 178.93016243 C-116.82739721 181.00762096 -118.91415232 183.08199534 -121.00170898 185.15560913 C-121.89474606 186.04789957 -121.89474606 186.04789957 -122.80582428 186.95821607 C-126.48722676 190.60683192 -130.29468124 194.04883479 -134.24578953 197.40419734 C-135.87908032 198.88999955 -137.20655669 200.38850351 -138.5625 202.125 C-141.26119526 205.30807646 -144.14584698 208.26692448 -148 210 C-151.2885545 209.54088905 -152.80835097 208.52687831 -154.99609375 206.078125 C-155.82548462 205.16703979 -155.82548462 205.16703979 -156.67163086 204.23754883 C-157.54573608 203.25371216 -157.54573608 203.25371216 -158.4375 202.25 C-162.1467548 198.14775081 -165.85109012 194.08395524 -169.84375 190.25390625 C-170.44775635 189.67286133 -171.0517627 189.09181641 -171.67407227 188.49316406 C-172.8316437 187.3899214 -173.99858903 186.29641474 -175.17553711 185.21386719 C-176.74609375 183.70703125 -176.74609375 183.70703125 -179 181 C-178.95934628 177.31637604 -176.68146214 175.34948259 -174.17765808 172.86341858 C-173.6485231 172.35290451 -173.11938812 171.84239044 -172.57421875 171.31640625 C-171.75821953 170.5103318 -171.75821953 170.5103318 -170.92573547 169.68797302 C-169.1866168 167.97223123 -167.43767628 166.26695463 -165.6875 164.5625 C-163.94976238 162.85996561 -162.21422636 161.15527099 -160.48139954 159.44773865 C-159.40389408 158.38703991 -158.32331184 157.32945454 -157.23918152 156.27552795 C-154.24576416 153.34088772 -151.60418257 150.27865217 -149 147 C-147.54166817 145.80092717 -146.08222397 144.60307071 -144.609375 143.421875 C-142.86139909 141.87754677 -141.43193337 140.22786077 -139.9375 138.4375 C-136.20255856 134.03411266 -132.00993905 130.22303803 -127.70678711 126.38842773 C-124.62207436 123.61223272 -121.97562884 120.77351669 -119.36212158 117.53398132 C-117.88905556 115.87505763 -116.32182345 114.51254243 -114.62011719 113.08911133 C-109.21986431 108.41425643 -104.23585502 103.33192729 -99.21471024 98.25930977 C-97.44366237 96.4706795 -95.66892859 94.68578109 -93.89315796 92.90184021 C-88.85103653 87.83541245 -83.81480747 82.76315567 -78.78271484 77.68676758 C-75.69137532 74.56872816 -72.59524803 71.45551086 -69.49607468 68.34525871 C-68.31797864 67.16094415 -67.14178484 65.97473424 -65.96751785 64.786623 C-64.33520307 63.13520405 -62.69692387 61.4899339 -61.05712891 59.84594727 C-60.57194794 59.3520047 -60.08676697 58.85806213 -59.58688354 58.34915161 C-56.22789991 55 -56.22789991 55 -54 55 C-54 54.34 -54 53.68 -54 53 C-52.671875 51.6953125 -52.671875 51.6953125 -50.75 50.125 C-46.9818451 46.91905649 -43.43507942 43.55677358 -39.9375 40.0625 C-39.45571289 39.58506348 -38.97392578 39.10762695 -38.47753906 38.61572266 C-35.84598899 35.9744261 -33.35040828 33.26555874 -30.9296875 30.4296875 C-26.1838089 24.95467707 -21.03093467 19.88135173 -15.90063477 14.77026367 C-14.17019863 13.04525287 -12.4452551 11.31487572 -10.72070312 9.58398438 C-9.62011271 8.48405367 -8.51921272 7.38443262 -7.41796875 6.28515625 C-6.90340622 5.76856949 -6.38884369 5.25198273 -5.85868835 4.71974182 C-2.23001196 1.11500598 -2.23001196 1.11500598 0 0 Z " fill="#0F4ABD" transform="translate(482,132)"/>
<path d="M0 0 C1.62035156 -0.04253906 1.62035156 -0.04253906 3.2734375 -0.0859375 C12.63987208 1.20222017 18.78145779 9.05769741 25.140625 15.421875 C26.24415748 16.51829563 27.34798337 17.61442104 28.4520874 18.71026611 C30.7567868 21.00156655 33.05551817 23.29866333 35.35058594 25.59960938 C38.28132507 28.53624905 41.22991795 31.45420882 44.18371964 34.36762619 C46.46589906 36.62386717 48.73641575 38.89157333 51.00383759 41.1626358 C52.08587738 42.24299103 53.17186879 43.31940443 54.26197052 44.39162445 C66.18368869 56.13907931 66.18368869 56.13907931 66.8046875 64.9140625 C66.70414063 65.60242188 66.60359375 66.29078125 66.5 67 C66.41492188 67.69351563 66.32984375 68.38703125 66.2421875 69.1015625 C64.17829266 76.70401058 59.06929888 81.45732295 53.64624023 86.85473633 C52.18066365 88.31933177 50.73779369 89.80408665 49.29492188 91.29101562 C47.91336914 92.67643555 47.91336914 92.67643555 46.50390625 94.08984375 C45.6641626 94.93667725 44.82441895 95.78351074 43.95922852 96.65600586 C41.625 98.375 41.625 98.375 39.67568684 98.15394211 C37.38835435 97.28511145 36.21248316 96.34666751 34.4797821 94.63092041 C33.8838475 94.04778076 33.2879129 93.46464111 32.67391968 92.86383057 C32.03217804 92.22072937 31.3904364 91.57762817 30.72924805 90.91503906 C30.04430771 90.24017456 29.35936737 89.56531006 28.65367126 88.86999512 C26.38998312 86.63482568 24.13780206 84.38848406 21.88671875 82.140625 C20.32084693 80.58438949 18.75474789 79.02838256 17.18843079 77.47259521 C13.9072716 74.20940582 10.63238167 70.94006602 7.36108398 67.66699219 C3.16151172 63.46711458 -1.05833731 59.28827185 -5.2837801 55.11444473 C-8.52383969 51.90767935 -11.75023423 48.68743372 -14.97289085 45.46318817 C-16.52347409 43.91615335 -18.07894312 42.37399994 -19.6392765 40.83679962 C-21.81605649 38.6892976 -23.97313436 36.52375953 -26.1262207 34.35253906 C-26.7780835 33.71753479 -27.42994629 33.08253052 -28.1015625 32.42828369 C-32.37316267 28.06430082 -32.37316267 28.06430082 -32.38243103 24.58714294 C-31.05458317 21.67142049 -29.34666021 19.84531734 -27.078125 17.58203125 C-26.2015625 16.70482422 -25.325 15.82761719 -24.421875 14.92382812 C-23.49890625 14.02083984 -22.5759375 13.11785156 -21.625 12.1875 C-20.7175 11.27291016 -19.81 10.35832031 -18.875 9.41601562 C-12.74573355 3.34499513 -8.85915985 0.10521568 0 0 Z " fill="#FD7872" transform="translate(494.375,43.625)"/>
<path d="M0 0 C5.40766124 -0.09940554 10.81478228 -0.17172051 16.22314453 -0.21972656 C18.06015293 -0.23975373 19.89709829 -0.26698382 21.73388672 -0.30175781 C24.38525002 -0.35067065 27.03576541 -0.37305763 29.6875 -0.390625 C30.49928711 -0.41127014 31.31107422 -0.43191528 32.14746094 -0.45318604 C37.90782724 -0.45541666 42.16268201 0.82903621 47 4 C50.5219928 7.63560547 51.10251031 11.37431265 51.20874023 16.30273438 C51.23767616 17.56555237 51.23767616 17.56555237 51.26719666 18.85388184 C51.32555514 22.71634015 51.37426871 26.57862268 51.4050293 30.44140625 C51.42652623 32.4663202 51.46052932 34.49114335 51.50756836 36.515625 C52.05447398 60.30699282 52.05447398 60.30699282 42.97436523 70.20898438 C37.7928592 75.2270079 31.62393305 79.16834701 24.28125 79.390625 C22.68702502 79.36449016 21.0930116 79.31745652 19.5 79.25 C18.67757813 79.23195313 17.85515625 79.21390625 17.0078125 79.1953125 C15.00469196 79.1487283 13.00218179 79.07700699 11 79 C12.98 78.01 12.98 78.01 15 77 C14.13375 76.505 13.2675 76.01 12.375 75.5 C5.44761766 70.83261474 1.86695285 63.97266685 0 56 C-0.38781366 51.61777551 -0.35073319 47.26755961 -0.29296875 42.87109375 C-0.28872391 41.64084976 -0.28447906 40.41060577 -0.28010559 39.14308167 C-0.26340766 35.24099184 -0.22577075 31.33943188 -0.1875 27.4375 C-0.17073803 24.78060652 -0.15875539 22.12371802 -0.14648438 19.46679688 C-0.11353318 12.97768595 -0.06342238 6.48888085 0 0 Z " fill="#BEC5D8" transform="translate(471,347)"/>
<path d="M0 0 C0.6875958 -0.00438225 1.37519161 -0.00876451 2.08362365 -0.01327956 C4.39891181 -0.02668616 6.71416189 -0.03285058 9.02947998 -0.03897095 C10.68504509 -0.04687047 12.34060848 -0.05513933 13.99617004 -0.06375122 C19.44312898 -0.08998945 24.89009567 -0.10528102 30.33709717 -0.11953735 C32.21101639 -0.12489636 34.08493556 -0.13027387 35.95885468 -0.13566971 C43.7532141 -0.15730141 51.54757143 -0.17603851 59.34195328 -0.1872921 C70.51801971 -0.20353336 81.69373858 -0.23671206 92.86967397 -0.29369295 C100.72452021 -0.33237763 108.57927343 -0.35192307 116.43421245 -0.35721266 C121.12716995 -0.36086826 125.81975689 -0.37291137 130.51261139 -0.4053154 C134.92860217 -0.43537008 139.34399769 -0.4417173 143.76006889 -0.42993164 C145.37980555 -0.42971068 146.99956962 -0.43803418 148.6192112 -0.45558548 C150.83352665 -0.47827242 153.04568269 -0.4699875 155.26000977 -0.45410156 C156.49814548 -0.45741171 157.7362812 -0.46072186 159.01193619 -0.46413231 C163.51875822 0.36188565 165.17683316 1.92435258 168.38397217 5.15390015 C168.92694092 7.4703064 168.92694092 7.4703064 168.57147217 9.71640015 C168.48252686 10.46018921 168.39358154 11.20397827 168.30194092 11.9703064 C166.97563999 15.12520944 165.23092496 16.28118998 162.38397217 18.15390015 C159.12495327 18.66005802 159.12495327 18.66005802 155.35575867 18.66856384 C154.6601049 18.67550937 153.96445114 18.6824549 153.24771696 18.6896109 C150.92293364 18.70786849 148.59917224 18.69762096 146.27435303 18.68734741 C144.60524228 18.69440645 142.93613794 18.7031514 141.26704407 18.7134552 C136.73818549 18.73595775 132.20967623 18.73300796 127.68078303 18.72413373 C123.90070075 18.71902504 120.12068417 18.72631521 116.34060866 18.7336058 C107.42523588 18.75060667 98.51003426 18.74703603 89.59466553 18.73031616 C80.39283044 18.71338246 71.1914693 18.72924603 61.98968595 18.76153904 C54.09061384 18.78821143 46.19168948 18.79551768 38.29257685 18.78702396 C33.57406852 18.78208934 28.8558456 18.78433956 24.13737297 18.80481148 C19.70240219 18.8231326 15.26811515 18.81725414 10.83318138 18.79261208 C9.20456536 18.78759334 7.57589755 18.79112149 5.94732285 18.80376053 C3.72582451 18.81963909 1.50659239 18.80479424 -0.71479797 18.78208923 C-1.95825517 18.78150292 -3.20171236 18.78091661 -4.48285007 18.78031254 C-7.61602783 18.15390015 -7.61602783 18.15390015 -9.9848547 15.83338833 C-12.04573623 12.44802868 -12.61602783 10.11903374 -12.61602783 6.15390015 C-8.9984517 0.41567594 -6.52359602 0.02939562 0 0 Z " fill="#D1D4E1" transform="translate(154.61602783203125,144.84609985351563)"/>
<path d="M0 0 C3.68913043 1.5468664 6.03699374 3.79268657 8.84375 6.61328125 C9.76027344 7.53173828 10.67679687 8.45019531 11.62109375 9.39648438 C12.09401855 9.87561279 12.56694336 10.35474121 13.05419922 10.84838867 C14.49009819 12.30247279 15.93376605 13.74846536 17.37890625 15.19335938 C29 26.88800435 29 26.88800435 29 32 C18.62642369 36.59225513 18.62642369 36.59225513 13 36 C13 36.66 13 37.32 13 38 C7.43096082 39.95404883 1.82287681 41.65046869 -3.875 43.1875 C-4.52927979 43.36635742 -5.18355957 43.54521484 -5.85766602 43.72949219 C-8.66791784 44.47656263 -11.07722529 45 -14 45 C-14 45.66 -14 46.32 -14 47 C-18.95 47.495 -18.95 47.495 -24 48 C-24 48.66 -24 49.32 -24 50 C-27.81458828 51.82436831 -31.24346899 53.1321784 -35.4140625 53.84765625 C-41.92622859 55.09718784 -48.18028562 57.07782565 -54.5 59.0625 C-55.67820313 59.42666016 -56.85640625 59.79082031 -58.0703125 60.16601562 C-63.64902196 61.79058893 -63.64902196 61.79058893 -69 64 C-72 64.1875 -72 64.1875 -75 64 C-77 62 -77 62 -77.296875 58.90234375 C-76.95390882 54.39414361 -75.82461133 50.76777208 -74.25 46.5625 C-73.99734375 45.85029297 -73.7446875 45.13808594 -73.484375 44.40429688 C-71.90049441 40.04466555 -70.04973744 35.91340613 -67.91333008 31.796875 C-66.45592331 28.92958984 -65.24040717 25.96619107 -64 23 C-63.43874315 21.68696792 -62.87627154 20.37445433 -62.3125 19.0625 C-61.879375 18.051875 -61.44625 17.04125 -61 16 C-57.42723096 17.51374725 -55.14319629 19.61894388 -52.4375 22.375 C-51.67308594 23.14585937 -50.90867188 23.91671875 -50.12109375 24.7109375 C-45 30.23756906 -45 30.23756906 -45 33 C-36.98859896 33.43445776 -32.73555239 30.89431036 -26.84765625 25.65234375 C-25.43806641 24.33943359 -25.43806641 24.33943359 -24 23 C-23.02933594 22.13503906 -22.05867188 21.27007812 -21.05859375 20.37890625 C-13.76772948 13.8604499 -6.85860391 6.96804972 0 0 Z " fill="#EAB95A" transform="translate(301,312)"/>
<path d="M0 0 C4.71533666 2.47661123 8.07540272 5.80504156 11.77807617 9.55102539 C12.43883652 10.21149368 13.09959686 10.87196198 13.78038025 11.55244446 C15.95601935 13.72947305 18.12449348 15.91349383 20.29296875 18.09765625 C21.80517073 19.61359053 23.31781649 21.12908224 24.83088684 22.64414978 C28.80801729 26.62890642 32.77910641 30.61963111 36.7489624 34.6116333 C40.79451647 38.67764145 44.84573063 42.73800128 48.89648438 46.79882812 C56.00599656 53.92748142 63.11060473 61.06099246 70.21159363 68.19813538 C71.80612107 69.80035881 73.40161993 71.40161993 75 73 C74.34 73 73.68 73 73 73 C72.74025391 73.58426758 72.48050781 74.16853516 72.21289062 74.77050781 C70.915344 77.15561164 69.50658878 78.75190637 67.59375 80.671875 C66.60181641 81.66767578 66.60181641 81.66767578 65.58984375 82.68359375 C64.90019531 83.36550781 64.21054687 84.04742187 63.5 84.75 C62.81035156 85.44738281 62.12070312 86.14476562 61.41015625 86.86328125 C60.74886719 87.52199219 60.08757812 88.18070312 59.40625 88.859375 C58.80103516 89.46233398 58.19582031 90.06529297 57.57226562 90.68652344 C56 92 56 92 54 92 C53.67 92.66 53.34 93.32 53 94 C52.76732422 93.26604004 52.53464844 92.53208008 52.29492188 91.77587891 C50.74984442 88.46375021 49.05561634 86.96490123 46.28125 84.5859375 C40.07606869 79.10876085 34.19788702 73.32488802 28.34375 67.4765625 C27.86747162 67.00105705 27.39119324 66.52555161 26.90048218 66.0356369 C24.43658151 63.57469597 21.97516988 61.11129003 19.515625 58.64599609 C16.98635938 56.11097934 14.45255399 53.58055476 11.91744232 51.05138588 C9.94587961 49.08344379 7.97671318 47.11311778 6.008255 45.14207077 C4.62480952 43.75764405 3.23936808 42.37521278 1.85388184 40.99282837 C1.01200317 40.14779755 0.17012451 39.30276672 -0.69726562 38.43212891 C-1.43384399 37.69475494 -2.17042236 36.95738098 -2.92932129 36.19766235 C-5.0964426 33.89764309 -7.02733772 31.46691744 -9 29 C-10.54239038 27.67977512 -12.12579079 26.40565691 -13.75 25.1875 C-14.54921875 24.58292969 -15.3484375 23.97835937 -16.171875 23.35546875 C-17.07679688 22.68451172 -17.07679688 22.68451172 -18 22 C-17.49711405 17.69753135 -16.26926751 15.78721514 -13.18359375 12.79296875 C-12.41982422 12.04208984 -11.65605469 11.29121094 -10.86914062 10.51757812 C-9.66547852 9.36418945 -9.66547852 9.36418945 -8.4375 8.1875 C-7.63119141 7.39923828 -6.82488281 6.61097656 -5.99414062 5.79882812 C-4.00479831 3.85657084 -2.00672729 1.92426339 0 0 Z " fill="#E9EDF6" transform="translate(460,70)"/>
<path d="M0 0 C1.10894119 -0.00990463 2.21788239 -0.01980927 3.36042786 -0.03001404 C4.57248901 -0.02551239 5.78455017 -0.02101074 7.03334045 -0.01637268 C8.31336441 -0.02323593 9.59338837 -0.03009918 10.91220093 -0.03717041 C14.42052497 -0.05511431 17.92859906 -0.05393117 21.43695521 -0.04822803 C24.36690496 -0.04513779 27.29680658 -0.05122681 30.22674948 -0.05726677 C37.13953406 -0.07131455 44.05219506 -0.06974879 50.96498108 -0.05836487 C58.09397425 -0.04688424 65.2225912 -0.0609575 72.35153478 -0.08776134 C78.47481209 -0.1099211 84.59797132 -0.1165551 90.72128588 -0.11068493 C94.3773309 -0.10731465 98.03313478 -0.10973476 101.68914604 -0.12693596 C105.76635929 -0.14528156 109.84284098 -0.13121535 113.9200592 -0.11402893 C115.13009613 -0.1236969 116.34013306 -0.13336487 117.58683777 -0.14332581 C125.70551586 -0.07151164 125.70551586 -0.07151164 129.79116821 2.17294312 C131.92071045 4.86766259 132.24281952 7.00381167 132.04530334 10.41893005 C131.20772223 13.69133998 129.09758011 15.33026446 126.54139709 17.38768005 C126.21139709 17.71768005 125.88139709 18.04768005 125.54139709 18.38768005 C123.87006489 18.49472083 122.19421316 18.53176985 120.51948547 18.5415802 C119.43149658 18.55018066 118.34350769 18.55878113 117.22254944 18.56764221 C115.41633118 18.57403214 115.41633118 18.57403214 113.57362366 18.58055115 C112.31354492 18.58872864 111.05346619 18.59690613 109.75520325 18.60533142 C105.56416473 18.63159001 101.37311604 18.6468651 97.18202209 18.66111755 C95.74053185 18.66647609 94.29904168 18.67185359 92.85755157 18.67724991 C86.86125683 18.69888629 80.86496482 18.71762281 74.8686409 18.7288723 C66.26988201 18.74510873 57.67157526 18.77826968 49.07298684 18.83527315 C43.0304756 18.87396714 36.9880853 18.89350444 30.94545341 18.89879286 C27.33508105 18.90244782 23.72519048 18.91448249 20.11495209 18.9468956 C16.08527744 18.98255409 12.05657419 18.97860688 8.02674866 18.97117615 C6.23267578 18.99578415 6.23267578 18.99578415 4.40235901 19.02088928 C-4.59743717 18.95278521 -4.59743717 18.95278521 -7.67643738 15.91371155 C-8.264552 15.08012115 -8.85266663 14.24653076 -9.45860291 13.38768005 C-9.78860291 13.05768005 -10.11860291 12.72768005 -10.45860291 12.38768005 C-10.47813416 10.42674255 -10.47813416 10.42674255 -10.27110291 8.01268005 C-10.21567322 7.22119568 -10.16024353 6.4297113 -10.10313416 5.61424255 C-8.65946466 0.62702066 -4.68237086 0.01181197 0 0 Z " fill="#CED2E0" transform="translate(152.45860290527344,212.61231994628906)"/>
<path d="M0 0 C1.01900391 1.03447266 1.01900391 1.03447266 2.05859375 2.08984375 C4.68319687 4.71444687 7.39094187 7.2391148 10.11523438 9.75952148 C20.69453112 19.55492099 30.85746432 29.75572592 41 40 C30.52489765 52.45515219 19.00248287 63.23849209 6 73 C5.67 73.33 5.34 73.66 5 74 C1.52547064 74.70555577 -1.53782159 74.79738136 -5 74 C-7.22297046 72.01473331 -8.68663594 69.93879814 -10.3359375 67.4609375 C-12.7799522 63.84654956 -15.85411477 60.99647643 -19 58 C-19.66 57.34 -20.32 56.68 -21 56 C-16.85563107 44.02214586 -12.44108087 32.16331067 -7.89233398 20.33349609 C-7.05104461 18.1334841 -6.22210181 15.92931766 -5.3984375 13.72265625 C-4.23763336 10.63258265 -3.04567028 7.56166415 -1.8125 4.5 C-1.46832031 3.6440625 -1.12414062 2.788125 -0.76953125 1.90625 C-0.38861328 0.96265625 -0.38861328 0.96265625 0 0 Z " fill="#FCDA83" transform="translate(261,271)"/>
<path d="M0 0 C5.36052199 2.27144688 9.04683888 6.63715126 13.10913086 10.68359375 C14.54945819 12.11206554 16.00736051 13.52078051 17.46679688 14.9296875 C23.23556938 20.65399155 27.58469506 25.13156061 28.1796875 33.5390625 C28.02886719 34.57160156 28.02886719 34.57160156 27.875 35.625 C27.78992188 36.31851563 27.70484375 37.01203125 27.6171875 37.7265625 C25.55329266 45.32901058 20.44429888 50.08232295 15.02124023 55.47973633 C13.55566365 56.94433177 12.11279369 58.42908665 10.66992188 59.91601562 C9.28836914 61.30143555 9.28836914 61.30143555 7.87890625 62.71484375 C7.0391626 63.56167725 6.19941895 64.40851074 5.33422852 65.28100586 C3 67 3 67 1.0488739 66.78091431 C-1.24561486 65.90638557 -2.39772562 64.96546221 -4.11621094 63.22436523 C-4.98666046 62.35357582 -4.98666046 62.35357582 -5.87469482 61.4651947 C-6.48838928 60.83601639 -7.10208374 60.20683807 -7.734375 59.55859375 C-8.37240051 58.91632339 -9.01042603 58.27405304 -9.66778564 57.61231995 C-11.70234118 55.56098274 -13.72621379 53.49945727 -15.75 51.4375 C-17.12821491 50.04423766 -18.50711325 48.65165102 -19.88671875 47.25976562 C-23.26579046 43.84763135 -26.63531864 40.42632293 -30 37 C-28.44938843 33.72724339 -26.80329895 31.58827146 -24.1875 29.0625 C-23.47722656 28.37285156 -22.76695312 27.68320313 -22.03515625 26.97265625 C-21.36355469 26.32167969 -20.69195313 25.67070313 -20 25 C-19.0399521 24.00164595 -18.08128533 23.00195866 -17.125 22 C-15 20 -15 20 -13 20 C-12.731875 19.41734375 -12.46375 18.8346875 -12.1875 18.234375 C-10.98519009 15.97213399 -9.66174087 14.19423682 -8 12.25 C-7.484375 11.63640625 -6.96875 11.0228125 -6.4375 10.390625 C-5 9 -5 9 -3 9 C-2.87625 7.88625 -2.7525 6.7725 -2.625 5.625 C-2 2 -2 2 0 0 Z " fill="#DB4C4E" transform="translate(533,75)"/>
<path d="M0 0 C0.75157883 -0.00832352 1.50315765 -0.01664703 2.2775116 -0.02522278 C4.76473153 -0.04933793 7.25168919 -0.05809724 9.73901367 -0.06469727 C11.46913227 -0.07366346 13.19925007 -0.0827853 14.92936707 -0.09205627 C18.55839929 -0.10855363 22.1873392 -0.11624756 25.81640625 -0.11914062 C30.46041629 -0.12452092 35.10355504 -0.16218255 39.74731922 -0.20788479 C43.32219079 -0.23767137 46.89685313 -0.24486455 50.471838 -0.24586678 C52.18343783 -0.25006702 53.8950384 -0.26249356 55.60651588 -0.28338432 C58.00524964 -0.31032942 60.40197197 -0.30546529 62.80078125 -0.29296875 C63.50385406 -0.30780304 64.20692688 -0.32263733 64.93130493 -0.33792114 C68.68859905 -0.28235623 71.1012994 0.34010569 74.01127625 2.62510681 C76.59448242 5.30639648 76.59448242 5.30639648 77.71948242 8.80639648 C77.56852666 13.03315785 76.58576232 14.40058173 73.59448242 17.30639648 C70.56323105 18.82202217 67.41349811 18.47122256 64.0871582 18.48339844 C63.31300568 18.48996964 62.53885315 18.49654083 61.74124146 18.50331116 C59.17409168 18.52305553 56.60700039 18.53470839 54.03979492 18.54467773 C53.16401669 18.54875326 52.28823845 18.55282879 51.38592148 18.55702782 C46.7518309 18.57789203 42.11776998 18.592193 37.48364258 18.6015625 C32.69271859 18.61263614 27.90225789 18.64704581 23.11149788 18.6867342 C19.43121464 18.7128526 15.75104267 18.72125 12.0706749 18.72484398 C10.30440003 18.72972124 8.53813051 18.74136756 6.77194595 18.75988197 C4.30111984 18.78417572 1.83150415 18.78332691 -0.6394043 18.77636719 C-1.36994019 18.78917725 -2.10047607 18.8019873 -2.85314941 18.81518555 C-6.23915668 18.78039141 -8.08730005 18.54433033 -10.83230591 16.49186707 C-13.05326044 13.40656654 -13.33928581 11.08160746 -13.40551758 7.30639648 C-10.49764629 0.76368609 -6.65479659 0.00623745 0 0 Z " fill="#CACFDE" transform="translate(155.405517578125,279.693603515625)"/>
<path d="M0 0 C6.88131516 5.63106191 13.05818358 11.94634904 19.3125 18.25 C20.419687 19.36221303 21.52710709 20.47419407 22.63476562 21.5859375 C24.65158667 23.61087895 26.66713507 25.63706649 28.6809082 27.66503906 C30.11832637 29.11229323 31.55765545 30.55765545 33 32 C32.34 32 31.68 32 31 32 C30.74025391 32.58426758 30.48050781 33.16853516 30.21289062 33.77050781 C28.915344 36.15561164 27.50658878 37.75190637 25.59375 39.671875 C24.60181641 40.66767578 24.60181641 40.66767578 23.58984375 41.68359375 C22.90019531 42.36550781 22.21054687 43.04742187 21.5 43.75 C20.81035156 44.44738281 20.12070312 45.14476562 19.41015625 45.86328125 C18.74886719 46.52199219 18.08757813 47.18070313 17.40625 47.859375 C16.80103516 48.46233398 16.19582031 49.06529297 15.57226562 49.68652344 C14 51 14 51 12 51 C11.505 51.99 11.505 51.99 11 53 C10.773125 52.27167969 10.54625 51.54335937 10.3125 50.79296875 C8.71321199 47.38972195 6.84663741 45.76772476 4 43.3125 C-1.80695631 38.19689185 -7.29438768 32.79989363 -12.75 27.3125 C-13.56082031 26.4975708 -14.37164062 25.6826416 -15.20703125 24.84301758 C-17.140059 22.89734889 -19.07113932 20.94979854 -21 19 C-20.42475586 18.75072754 -19.84951172 18.50145508 -19.25683594 18.24462891 C-16.67589928 16.82126077 -14.95787763 15.18451214 -12.890625 13.0859375 C-12.13652344 12.32539062 -11.38242187 11.56484375 -10.60546875 10.78125 C-9.82816406 9.9871875 -9.05085938 9.193125 -8.25 8.375 C-7.45722656 7.57320313 -6.66445313 6.77140625 -5.84765625 5.9453125 C-3.89385507 3.96797154 -1.94487897 1.98611091 0 0 Z " fill="#BEC7DE" transform="translate(502,111)"/>
<path d="M0 0 C6.29092062 2.68793881 11.76092367 8.58195817 15.1875 14.4375 C16.7746761 17.24990293 16.7746761 17.24990293 19.77734375 17.7890625 C23.78688813 19.29567918 25.80166357 21.66835206 28.375 24.9375 C28.82488281 25.47568359 29.27476562 26.01386719 29.73828125 26.56835938 C33 30.58850209 33 30.58850209 33 34 C27.31553911 36.00879445 21.62634305 38.00326768 15.93115234 39.98144531 C13.98285871 40.65846356 12.03526126 41.33748868 10.08837891 42.01855469 C7.27051447 43.00129744 4.44845557 43.9709545 1.625 44.9375 C0.75270752 45.24373291 -0.11958496 45.54996582 -1.01831055 45.86547852 C-5.43445983 47.36277735 -9.27224726 48.59279872 -14 48 C-16 46 -16 46 -16.296875 42.90234375 C-15.95390882 38.39414361 -14.82461133 34.76777208 -13.25 30.5625 C-12.99734375 29.85029297 -12.7446875 29.13808594 -12.484375 28.40429688 C-10.90049441 24.04466555 -9.04973744 19.91340613 -6.91333008 15.796875 C-5.45592331 12.92958984 -4.24040717 9.96619107 -3 7 C-2.43874315 5.68696792 -1.87627154 4.37445433 -1.3125 3.0625 C-0.879375 2.051875 -0.44625 1.04125 0 0 Z " fill="#31394B" transform="translate(240,328)"/>
<path d="M0 0 C1.44709099 -0.01913956 1.44709099 -0.01913956 2.92341614 -0.03866577 C3.96922348 -0.04089142 5.01503082 -0.04311707 6.0925293 -0.04541016 C7.7019062 -0.05539536 7.7019062 -0.05539536 9.34379578 -0.06558228 C11.61768882 -0.07572266 13.89161171 -0.08039887 16.16552734 -0.08007812 C19.64234702 -0.08444203 23.11788831 -0.12072279 26.59448242 -0.15869141 C28.80216037 -0.16456111 31.00984435 -0.16852947 33.2175293 -0.17041016 C34.25726395 -0.18478119 35.2969986 -0.19915222 36.36824036 -0.21395874 C43.59907037 -0.16828648 43.59907037 -0.16828648 47.48779297 2.19433594 C49.71066479 4.69081435 50.28640773 5.78172493 50.72924805 9.10302734 C50.2318605 13.33082148 48.56043728 14.61870298 45.35424805 17.29052734 C42.99263192 18.47133541 41.52660148 18.43572429 38.89208984 18.4675293 C37.96740402 18.48036453 37.0427182 18.49319977 36.0900116 18.50642395 C35.08795181 18.51381088 34.08589203 18.52119781 33.0534668 18.52880859 C32.02494095 18.53688034 30.9964151 18.54495209 29.9367218 18.55326843 C27.75698536 18.56711501 25.57722719 18.57783459 23.39746094 18.58569336 C20.06558077 18.60290424 16.73469319 18.64678569 13.40307617 18.69091797 C11.28654702 18.7010449 9.17000942 18.709561 7.0534668 18.71630859 C5.55948616 18.74257072 5.55948616 18.74257072 4.0353241 18.7693634 C-0.32132445 18.75571915 -2.93066435 18.70761963 -6.75195312 16.47875977 C-9.39245392 13.42773377 -9.64575195 11.28853512 -9.64575195 7.29052734 C-7.33415819 2.33711214 -5.51449775 0.04940353 0 0 Z " fill="#C7CDDD" transform="translate(151.645751953125,347.70947265625)"/>
<path d="M0 0 C0 0.66 0 1.32 0 2 C-3.91584433 3.31496233 -7.83281337 4.62654223 -11.75 5.9375 C-13.41675781 6.49727539 -13.41675781 6.49727539 -15.1171875 7.06835938 C-16.18710938 7.42607422 -17.25703125 7.78378906 -18.359375 8.15234375 C-19.34389648 8.48226318 -20.32841797 8.81218262 -21.34277344 9.15209961 C-22.95650069 9.66702746 -24.58354743 10.14486354 -26.22753906 10.55297852 C-28.08886608 10.95488878 -28.08886608 10.95488878 -30 12 C-30.99 11.34 -31.98 10.68 -33 10 C-25.65879483 7.16182349 -18.22687023 4.82301825 -10.66430664 2.66333008 C-1.37290442 0 -1.37290442 0 0 0 Z " fill="#ACB3C4" transform="translate(265,365)"/>
<path d="M0 0 C2.38564077 0.57584432 4.66682784 1.22227595 7 2 C6.67 3.32 6.34 4.64 6 6 C3.97945196 4.35830472 1.97956942 2.69088222 0 1 C0 0.67 0 0.34 0 0 Z " fill="#2152AE" transform="translate(306,315)"/>
<path d="M0 0 C1.98 0.99 1.98 0.99 4 2 C3.01 4.31 2.02 6.62 1 9 C0.67 9 0.34 9 0 9 C0 6.03 0 3.06 0 0 Z " fill="#ED6161" transform="translate(530,72)"/>
</svg>
